<?xml version="1.0" standalone="no"?>
<!DOCTYPE svg PUBLIC "-//W3C//DTD SVG 20010904//EN"
 "http://www.w3.org/TR/2001/REC-SVG-20010904/DTD/svg10.dtd">
<svg version="1.0" xmlns="http://www.w3.org/2000/svg"
 width="513.000000pt" height="513.000000pt" viewBox="0 0 513.000000 513.000000"
 preserveAspectRatio="xMidYMid meet">
<metadata>
Created by potrace 1.14, written by Peter Selinger 2001-2017
</metadata>
<g transform="translate(0.000000,513.000000) scale(0.100000,-0.100000)"
fill="#000000" stroke="none">
<path d="M1116 3624 c-93 -98 -184 -165 -331 -244 -110 -58 -193 -119 -274
-200 -173 -172 -253 -350 -196 -436 11 -16 18 -32 17 -36 -1 -5 4 -7 11 -5 6
1 11 -4 10 -10 -2 -7 0 -12 5 -12 22 4 42 -2 37 -11 -3 -6 4 -10 18 -10 13 0
27 -3 31 -7 3 -4 16 -8 29 -10 20 -3 95 -12 125 -15 6 -1 12 -7 12 -14 0 -7 5
-16 12 -20 7 -4 8 -3 4 4 -13 21 3 33 26 21 17 -9 18 -13 7 -20 -8 -5 -9 -9
-3 -9 6 0 18 8 25 17 10 11 10 14 2 9 -7 -4 -13 -2 -13 3 0 13 10 14 30 1 9
-6 17 -5 22 3 6 9 8 9 8 0 0 -8 7 -10 18 -6 15 6 16 5 2 -13 -14 -18 -14 -18
5 -3 26 21 55 31 55 19 0 -5 7 -7 15 -4 11 5 14 1 9 -12 -5 -17 -4 -17 8 1 12
18 25 20 130 21 100 1 118 -1 121 -15 3 -9 5 -6 6 9 1 20 3 22 11 10 7 -10 12
-12 18 -4 11 17 75 11 90 -9 7 -9 11 -21 8 -25 -2 -4 4 -8 14 -8 17 0 17 1 -1
25 -11 13 -17 27 -13 30 3 3 12 -3 21 -14 15 -20 15 -20 11 0 -2 17 2 19 27
16 17 -1 33 -8 37 -15 5 -7 8 -5 8 7 0 9 4 17 9 17 10 0 9 -19 -2 -37 -5 -8
-4 -13 2 -13 6 0 11 4 11 10 0 5 8 7 18 4 16 -5 16 -5 -1 6 -17 11 -15 30 4
30 6 0 8 -4 4 -9 -3 -5 4 -13 16 -16 19 -6 19 -8 5 -24 -14 -15 -14 -18 -1
-18 8 0 12 4 9 8 -2 4 0 10 5 14 6 3 8 12 5 20 -4 8 -10 12 -15 9 -5 -3 -9 -1
-9 5 0 5 15 8 33 7 17 -1 38 3 46 9 11 7 13 7 8 -1 -11 -19 39 -35 68 -22 13
6 22 15 19 19 -3 5 5 9 18 9 18 0 20 -2 8 -10 -10 -7 -11 -10 -2 -10 7 0 15 6
18 13 7 20 44 19 37 -1 -4 -15 -3 -15 6 -2 5 8 18 16 28 17 10 1 31 4 47 8 24
5 27 4 18 -8 -14 -17 -6 -27 22 -26 19 1 19 2 -3 8 -21 6 -22 8 -7 20 10 9 16
10 16 2 0 -6 4 -11 10 -11 5 0 8 6 6 13 -1 6 -1 9 1 5 2 -4 11 -4 20 -1 13 5
13 3 -1 -20 -13 -19 -14 -27 -5 -33 7 -4 9 -3 6 3 -3 5 2 21 11 35 13 19 24
25 45 22 15 -1 27 1 27 5 0 4 14 7 30 7 32 0 37 -5 18 -24 -8 -8 -9 -12 -1
-12 6 0 13 4 15 9 4 12 58 23 58 11 0 -4 8 -11 17 -14 15 -6 15 -5 -1 13 -10
11 -23 18 -27 15 -5 -3 -9 -1 -9 3 0 5 16 9 35 10 19 1 32 -3 29 -8 -3 -5 -10
-6 -16 -3 -7 4 -8 2 -4 -5 6 -9 11 -9 22 0 11 9 18 9 29 -1 9 -7 18 -10 22 -7
3 4 14 2 24 -3 15 -9 17 -6 14 18 -3 26 -1 28 33 28 20 0 47 4 60 8 14 5 22 3
22 -4 0 -6 -5 -8 -12 -4 -9 5 -9 2 1 -9 7 -9 19 -17 25 -17 8 0 7 3 -1 8 -8 5
-9 13 -3 22 7 10 10 11 10 3 0 -7 4 -13 10 -13 5 0 7 6 4 14 -4 10 5 13 35 11
23 -1 41 1 41 4 0 4 17 8 38 9 20 2 49 4 65 5 15 1 27 6 27 12 0 5 5 3 10 -5
6 -10 10 -11 10 -3 0 7 10 12 23 12 12 -1 29 1 38 5 12 5 22 0 33 -16 9 -12
16 -17 16 -11 0 7 -4 15 -10 18 -18 11 -10 21 18 23 27 1 55 5 100 16 12 3 22
0 22 -5 0 -6 6 -9 13 -6 6 2 20 0 30 -5 35 -18 56 -18 50 0 -4 9 -8 11 -10 5
-3 -7 -11 -9 -19 -6 -7 3 -12 8 -9 13 2 4 -7 6 -20 4 -14 -1 -25 1 -25 6 0 4
10 8 23 8 12 0 33 3 47 6 14 3 34 7 45 9 11 3 26 -1 34 -7 11 -8 13 -8 8 1 -4
6 -3 14 2 17 9 6 25 -31 21 -49 -1 -5 2 -7 6 -3 4 4 14 2 23 -4 9 -7 6 -1 -6
13 -24 27 -30 49 -13 49 6 0 10 -6 10 -14 0 -8 4 -18 10 -21 6 -4 9 4 7 17 -2
21 2 23 33 20 25 -1 31 1 20 7 -12 8 -11 10 5 9 11 -1 31 2 45 6 24 6 24 6 -2
-9 -16 -9 -28 -20 -28 -26 0 -9 11 -2 50 33 15 14 19 14 24 2 3 -8 2 -14 -2
-14 -5 0 -16 -6 -27 -13 -14 -11 -15 -16 -5 -22 8 -5 11 -4 6 3 -3 6 2 13 13
17 11 3 25 13 33 22 11 14 11 16 -1 8 -10 -5 -12 -4 -7 3 8 13 36 17 36 5 0
-3 -8 -15 -17 -25 -13 -15 -14 -21 -4 -31 10 -9 11 -8 6 5 -5 12 -1 20 9 24 9
3 16 15 16 27 0 11 3 17 6 14 4 -3 14 -2 23 2 9 5 35 11 59 15 24 3 48 8 53
12 5 3 17 0 26 -8 9 -7 14 -8 10 -2 -12 21 23 24 43 4 11 -11 20 -16 20 -11 0
6 -4 13 -10 16 -17 10 -11 21 12 22 18 2 20 0 8 -7 -11 -7 -11 -10 -2 -10 7 0
15 7 18 15 4 8 11 15 16 15 6 0 3 -11 -6 -25 -9 -13 -16 -28 -16 -32 0 -4 5 0
11 10 6 9 15 14 21 11 7 -4 8 -2 4 4 -10 17 5 37 29 39 11 0 31 4 45 8 14 3
39 9 55 12 17 3 38 9 48 14 9 6 21 8 25 5 4 -3 14 -1 22 4 10 6 21 3 33 -8 15
-13 20 -14 26 -3 5 8 14 10 22 6 11 -6 11 -5 2 5 -9 10 -15 10 -26 1 -12 -9
-16 -8 -21 6 -4 10 -4 14 -1 11 4 -4 18 -3 32 3 16 6 22 6 18 -1 -3 -6 -1 -10
4 -10 6 0 11 5 11 12 0 6 3 9 6 5 4 -3 19 0 35 9 26 13 32 13 60 -2 17 -8 28
-11 25 -5 -4 6 -2 11 3 11 6 0 11 5 11 11 0 8 -5 7 -15 -1 -13 -11 -18 -11
-28 0 -10 10 -9 12 6 7 9 -4 17 -2 17 4 0 6 8 9 18 7 10 -3 24 1 31 9 7 8 19
12 27 9 8 -3 14 0 14 6 0 6 3 8 7 5 3 -4 13 -1 21 6 13 9 14 9 8 0 -4 -8 -2
-14 6 -15 7 0 18 -2 23 -3 6 -2 14 -3 19 -4 5 0 2 -9 -5 -18 -12 -16 -12 -17
2 -6 9 7 19 9 24 5 4 -4 0 6 -10 21 -13 21 -20 25 -26 15 -4 -7 -11 -9 -16 -5
-9 9 17 28 29 21 4 -3 8 0 8 6 0 6 5 8 10 5 6 -3 13 1 16 9 3 9 12 16 19 16
19 0 62 37 67 58 3 10 -1 27 -8 37 -16 21 -89 24 -177 6 -28 -6 -61 -13 -72
-15 -11 -2 -56 -11 -100 -20 -158 -31 -349 -67 -384 -72 -61 -9 -224 -37 -276
-48 -11 -2 -42 -7 -70 -10 -27 -4 -57 -9 -66 -12 -25 -7 -109 -17 -161 -18
-25 -1 -44 -4 -41 -8 4 -7 -14 -10 -74 -11 -13 -1 -23 -5 -23 -10 0 -4 -4 -6
-9 -3 -4 3 -35 1 -67 -4 -65 -10 -127 -18 -264 -35 -43 -5 -131 -15 -185 -20
-77 -8 -160 -16 -210 -21 -27 -3 -86 -7 -130 -9 -44 -2 -80 -5 -80 -6 0 -4
-393 -20 -590 -24 -108 -2 -165 1 -174 9 -11 8 -13 8 -8 -1 8 -12 -57 -11
-213 3 -36 3 -80 6 -97 6 -18 0 -33 3 -33 7 0 3 -18 7 -41 8 -45 3 -123 27
-157 49 -25 17 -28 42 -8 69 12 17 16 18 32 5 18 -14 18 -14 4 3 -13 17 -12
21 10 38 14 10 30 19 37 19 6 0 14 6 16 13 4 10 6 10 6 0 1 -7 5 -13 11 -13 5
0 6 8 3 18 -6 15 -5 15 10 3 15 -12 17 -12 11 4 -5 13 -4 16 4 11 7 -4 12 -3
12 2 0 9 69 39 82 34 4 -1 8 3 8 10 0 6 3 8 7 5 3 -4 11 -2 18 3 18 15 155 70
155 62 0 -3 7 4 16 16 8 12 19 20 24 17 4 -3 28 15 52 40 35 37 48 45 68 40
l25 -5 -23 13 c-22 13 -22 14 -4 30 11 10 27 15 38 11 18 -5 18 -5 1 6 -9 6
-15 16 -12 21 4 5 10 7 15 4 5 -3 12 0 16 6 4 8 3 9 -4 5 -7 -4 -12 -3 -12 2
0 9 20 18 58 27 24 6 27 16 4 12 -12 -2 -25 -6 -28 -10 -17 -17 -21 -4 -8 23
9 17 20 30 26 30 6 0 8 3 5 7 -4 3 0 17 9 31 9 13 18 35 20 49 3 14 6 30 7 36
6 30 -28 5 -107 -79z m1018 -920 c3 -7 -5 -11 -20 -11 -13 0 -28 5 -34 11 -7
9 -2 12 20 12 16 0 31 -5 34 -12z m-584 -53 c0 -13 -27 -21 -45 -15 -24 10
-17 20 15 22 17 1 30 -2 30 -7z"/>
<path d="M1155 3479 c-4 -6 -5 -12 -2 -15 2 -3 7 2 10 11 7 17 1 20 -8 4z"/>
<path d="M2728 3458 c-8 -13 -27 -49 -43 -80 -15 -32 -31 -58 -34 -58 -4 0 -8
-11 -9 -24 -2 -25 13 -42 80 -94 21 -16 35 -31 33 -34 -3 -3 2 -5 10 -5 8 0
12 3 10 7 -2 4 7 13 20 20 13 7 21 18 18 23 -4 6 0 8 9 4 10 -3 15 0 14 10 0
9 5 18 12 20 6 3 12 0 12 -7 0 -6 -5 -8 -12 -4 -7 4 -8 3 -4 -4 9 -15 9 -16
29 9 12 13 13 19 5 18 -29 -4 -36 2 -30 23 5 21 6 21 12 3 6 -17 8 -16 12 7 3
15 2 25 -2 23 -4 -3 -7 15 -6 39 1 25 0 43 -2 41 -2 -2 -24 17 -50 41 -52 50
-64 53 -84 22z"/>
<path d="M1095 3441 c-9 -15 15 -25 28 -12 9 9 7 10 -7 5 -13 -5 -17 -4 -12 4
4 7 5 12 2 12 -3 0 -7 -4 -11 -9z"/>
<path d="M1159 3403 c-13 -16 -12 -17 4 -4 9 7 17 15 17 17 0 8 -8 3 -21 -13z"/>
<path d="M1050 3381 c-7 -15 -7 -22 2 -28 21 -12 37 -12 45 0 3 7 3 9 -2 5
-12 -11 -35 11 -28 28 8 21 -5 17 -17 -5z"/>
<path d="M1120 3390 c-8 -5 -12 -12 -9 -15 4 -3 12 1 19 10 14 17 11 19 -10 5z"/>
<path d="M1023 3353 c4 -3 2 -12 -4 -20 -9 -9 -8 -13 0 -13 6 0 11 5 11 11 0
5 6 7 13 3 8 -5 8 -2 -2 9 -7 9 -16 17 -19 17 -3 0 -2 -3 1 -7z"/>
<path d="M1116 3328 c3 -5 10 -6 15 -3 13 9 11 12 -6 12 -8 0 -12 -4 -9 -9z"/>
<path d="M990 3321 c0 -6 4 -13 10 -16 6 -3 7 1 4 9 -7 18 -14 21 -14 7z"/>
<path d="M1032 3311 c-11 -7 -10 -9 3 -14 9 -4 14 -3 10 2 -3 5 1 12 7 14 7 3
9 6 3 6 -5 0 -16 -3 -23 -8z"/>
<path d="M950 3306 c0 -2 9 -6 20 -9 11 -3 18 -1 14 4 -5 9 -34 13 -34 5z"/>
<path d="M2893 3293 c1 -17 4 -19 14 -11 15 12 18 22 4 14 -5 -4 -11 0 -14 6
-3 7 -4 3 -4 -9z"/>
<path d="M906 3275 c-18 -14 -14 -35 7 -35 8 0 7 3 -2 9 -11 7 -10 11 5 19 10
6 17 13 14 15 -3 3 -13 -1 -24 -8z"/>
<path d="M950 3279 c0 -5 5 -7 10 -4 6 3 10 8 10 11 0 2 -4 4 -10 4 -5 0 -10
-5 -10 -11z"/>
<path d="M976 3271 c-3 -4 6 -6 19 -3 14 2 25 6 25 8 0 8 -39 4 -44 -5z"/>
<path d="M850 3254 c-17 -9 -20 -14 -9 -14 9 0 22 7 29 15 15 18 13 18 -20 -1z"/>
<path d="M930 3250 c0 -5 5 -10 10 -10 6 0 10 5 10 10 0 6 -4 10 -10 10 -5 0
-10 -4 -10 -10z"/>
<path d="M818 3220 c12 -11 24 -20 28 -20 4 0 -1 9 -11 20 -10 11 -23 20 -28
20 -6 0 -1 -9 11 -20z"/>
<path d="M870 3231 c0 -6 4 -12 8 -15 5 -3 9 1 9 9 0 8 -4 15 -9 15 -4 0 -8
-4 -8 -9z"/>
<path d="M774 3208 c-5 -7 -3 -8 6 -3 10 6 12 4 7 -9 -4 -10 -3 -15 3 -11 13
8 13 35 1 35 -6 0 -13 -5 -17 -12z"/>
<path d="M2873 3201 c0 -11 5 -18 9 -15 4 3 5 11 1 19 -7 21 -12 19 -10 -4z"/>
<path d="M723 3203 c-15 -5 -17 -23 -4 -23 5 0 11 7 15 15 3 8 4 15 3 14 -1 0
-8 -3 -14 -6z"/>
<path d="M746 3192 c-3 -5 1 -9 9 -9 8 0 12 4 9 9 -3 4 -7 8 -9 8 -2 0 -6 -4
-9 -8z"/>
<path d="M2830 3193 c0 -6 8 -17 18 -24 16 -13 16 -13 2 6 -8 11 -16 22 -17
24 -2 2 -3 0 -3 -6z"/>
<path d="M4201 3174 c0 -11 3 -14 6 -6 3 7 2 16 -1 19 -3 4 -6 -2 -5 -13z"/>
<path d="M678 3173 c7 -3 16 -2 19 1 4 3 -2 6 -13 5 -11 0 -14 -3 -6 -6z"/>
<path d="M2795 3171 c-3 -5 0 -13 6 -17 7 -4 9 -3 5 4 -3 5 0 13 6 15 9 4 10
6 1 6 -6 1 -14 -3 -18 -8z"/>
<path d="M736 3161 c-4 -5 3 -7 14 -4 23 6 26 13 6 13 -8 0 -17 -4 -20 -9z"/>
<path d="M4154 3151 c4 -5 1 -12 -4 -14 -6 -3 -5 -4 2 -3 15 3 23 26 8 26 -6
0 -9 -4 -6 -9z"/>
<path d="M4235 3150 c3 -5 8 -10 11 -10 2 0 4 5 4 10 0 6 -5 10 -11 10 -5 0
-7 -4 -4 -10z"/>
<path d="M4175 3131 c-3 -5 -2 -12 3 -15 5 -3 9 1 9 9 0 17 -3 19 -12 6z"/>
<path d="M4121 3123 c-1 -17 16 -25 25 -12 4 7 3 9 -4 5 -5 -3 -13 0 -15 6 -4
9 -6 10 -6 1z"/>
<path d="M636 3108 c3 -5 10 -6 15 -3 13 9 11 12 -6 12 -8 0 -12 -4 -9 -9z"/>
<path d="M613 3097 c0 -8 6 -14 14 -14 9 0 10 4 2 14 -6 7 -12 13 -14 13 -1 0
-2 -6 -2 -13z"/>
<path d="M4149 3093 c-13 -16 -12 -17 4 -4 16 13 21 21 13 21 -2 0 -10 -8 -17
-17z"/>
<path d="M693 3085 c0 -8 4 -12 9 -9 5 3 6 10 3 15 -9 13 -12 11 -12 -6z"/>
<path d="M3985 3082 c-8 -23 -5 -28 6 -9 6 9 14 15 19 12 4 -3 19 -1 32 4 20
8 18 9 -14 8 -22 -1 -40 -7 -43 -15z"/>
<path d="M4053 3065 c0 -8 4 -12 9 -9 5 3 6 10 3 15 -9 13 -12 11 -12 -6z"/>
<path d="M519 3058 c15 -21 31 -23 31 -6 0 6 -3 8 -7 5 -3 -4 -13 -1 -22 6
-14 11 -14 10 -2 -5z"/>
<path d="M3951 3043 c-10 -24 -9 -26 2 -11 11 14 16 15 27 5 11 -9 11 -8 0 8
-8 11 -15 21 -16 23 0 1 -6 -10 -13 -25z"/>
<path d="M4001 3054 c0 -11 3 -14 6 -6 3 7 2 16 -1 19 -3 4 -6 -2 -5 -13z"/>
<path d="M4031 3054 c0 -11 3 -14 6 -6 3 7 2 16 -1 19 -3 4 -6 -2 -5 -13z"/>
<path d="M3852 3039 c-48 -25 -54 -34 -10 -16 26 11 38 12 41 4 2 -6 6 -4 10
6 9 24 -3 26 -41 6z"/>
<path d="M507 3025 c3 -8 9 -12 14 -9 12 7 11 11 -5 17 -10 4 -13 1 -9 -8z"/>
<path d="M3906 3032 c-3 -5 1 -9 9 -9 8 0 12 4 9 9 -3 4 -7 8 -9 8 -2 0 -6 -4
-9 -8z"/>
<path d="M554 3008 c-4 -7 -4 -10 1 -6 4 4 15 2 24 -5 14 -11 14 -10 2 6 -16
20 -18 21 -27 5z"/>
<path d="M3855 3010 c-4 -6 -1 -9 7 -8 7 2 12 -3 10 -10 -1 -8 2 -11 8 -7 8 5
7 11 -1 21 -14 17 -16 17 -24 4z"/>
<path d="M3669 3008 c-8 -16 -3 -45 7 -45 11 0 11 3 2 14 -9 11 -8 17 3 24 10
6 10 9 2 9 -7 0 -14 -1 -14 -2z"/>
<path d="M3700 2995 c-8 -9 -8 -15 -2 -15 6 0 12 5 14 12 3 7 10 8 17 4 11 -7
11 -10 0 -17 -8 -5 -9 -9 -3 -9 18 0 24 13 13 27 -15 17 -24 17 -39 -2z"/>
<path d="M3775 2991 c-3 -5 -2 -12 3 -15 5 -3 9 1 9 9 0 17 -3 19 -12 6z"/>
<path d="M3933 2985 c0 -8 4 -12 9 -9 5 3 6 10 3 15 -9 13 -12 11 -12 -6z"/>
<path d="M3577 2973 c-12 -12 -17 -13 -17 -4 0 9 -5 8 -16 -4 -10 -10 -24 -13
-38 -9 -17 5 -19 4 -9 -7 10 -9 18 -10 37 -1 14 6 26 7 28 2 2 -4 11 3 21 16
21 28 18 31 -6 7z"/>
<path d="M3610 2983 c0 -5 5 -15 10 -23 7 -12 9 -10 7 8 -1 19 -17 33 -17 15z"/>
<path d="M3836 2968 c3 -5 10 -6 15 -3 13 9 11 12 -6 12 -8 0 -12 -4 -9 -9z"/>
<path d="M3585 2950 c-3 -6 1 -7 9 -4 18 7 21 14 7 14 -6 0 -13 -4 -16 -10z"/>
<path d="M3536 2932 c-3 -5 1 -9 9 -9 8 0 12 4 9 9 -3 4 -7 8 -9 8 -2 0 -6 -4
-9 -8z"/>
<path d="M3595 2930 c-3 -6 1 -7 9 -4 18 7 21 14 7 14 -6 0 -13 -4 -16 -10z"/>
<path d="M3330 2921 c0 -6 -5 -10 -12 -8 -6 1 -13 -6 -14 -16 -1 -12 0 -13 3
-2 2 8 8 13 12 11 4 -3 13 -1 20 3 9 6 10 11 2 15 -6 4 -11 2 -11 -3z"/>
<path d="M3275 2910 c-4 -6 -15 -8 -25 -5 -10 3 -21 1 -25 -4 -3 -7 0 -8 10
-5 11 4 14 2 9 -9 -3 -8 -1 -18 5 -22 7 -4 8 1 4 12 -3 10 -3 15 2 11 8 -8 40
20 32 28 -3 3 -8 0 -12 -6z"/>
<path d="M3375 2911 c-3 -6 4 -9 15 -8 11 1 20 5 20 9 0 11 -28 10 -35 -1z"/>
<path d="M3478 2913 c7 -3 16 -2 19 1 4 3 -2 6 -13 5 -11 0 -14 -3 -6 -6z"/>
<path d="M3439 2883 c-13 -16 -12 -17 4 -4 16 13 21 21 13 21 -2 0 -10 -8 -17
-17z"/>
<path d="M3219 2878 c-1 -2 -3 -13 -4 -26 -2 -16 1 -20 10 -12 6 5 16 6 20 2
5 -4 5 -1 1 6 -4 7 -12 9 -18 6 -7 -5 -9 -1 -5 9 5 13 1 25 -4 15z"/>
<path d="M3340 2870 c-9 -6 -10 -10 -3 -10 6 0 15 5 18 10 8 12 4 12 -15 0z"/>
<path d="M3370 2869 c0 -5 5 -7 10 -4 6 3 10 8 10 11 0 2 -4 4 -10 4 -5 0 -10
-5 -10 -11z"/>
<path d="M3295 2859 c-4 -6 -5 -12 -2 -15 2 -3 7 2 10 11 7 17 1 20 -8 4z"/>
<path d="M3007 2846 c-4 -10 -1 -13 8 -9 8 3 12 9 9 14 -7 12 -11 11 -17 -5z"/>
<path d="M2870 2825 c-7 -9 -11 -17 -9 -20 3 -2 10 5 17 15 14 24 10 26 -8 5z"/>
<path d="M2897 2825 c-4 -8 -3 -16 1 -19 4 -3 9 4 9 15 2 23 -3 25 -10 4z"/>
<path d="M3030 2820 c0 -5 7 -7 15 -4 8 4 15 8 15 10 0 2 -7 4 -15 4 -8 0 -15
-4 -15 -10z"/>
<path d="M3070 2826 c0 -2 8 -10 18 -17 15 -13 16 -12 3 4 -13 16 -21 21 -21
13z"/>
<path d="M2926 2805 c4 -8 8 -15 10 -15 2 0 4 7 4 15 0 8 -4 15 -10 15 -5 0
-7 -7 -4 -15z"/>
<path d="M4823 2780 c-25 -48 -68 -90 -91 -90 -11 0 -32 -19 -51 -45 -36 -50
-78 -77 -108 -69 -15 4 -26 -3 -42 -30 -29 -46 -111 -118 -128 -112 -7 3 -12
1 -10 -3 1 -5 -2 -10 -8 -11 -5 -1 -14 -8 -18 -16 -4 -8 -13 -14 -18 -14 -6 0
-7 4 -4 10 3 5 2 17 -3 26 -6 11 -11 13 -16 5 -4 -6 -2 -11 3 -11 6 0 11 -4
11 -10 0 -5 -8 -10 -17 -10 -15 0 -16 -2 -3 -10 8 -5 11 -10 5 -11 -5 0 -18
-2 -27 -4 -14 -3 -15 0 -5 16 6 10 15 19 20 19 4 0 6 4 3 9 -3 4 1 17 9 27 13
18 14 18 20 2 9 -22 22 -24 22 -3 0 8 -4 12 -8 10 -10 -7 -19 20 -14 45 2 11
0 18 -6 15 -8 -6 -13 8 -10 28 0 4 -5 7 -13 7 -8 0 -21 6 -28 13 -22 22 -166
19 -213 -4 -47 -23 -91 -64 -111 -101 -16 -31 -17 -31 46 -32 36 -1 45 -4 44
-18 -1 -10 2 -16 6 -13 5 3 11 1 15 -5 3 -5 1 -10 -4 -10 -6 0 -11 -5 -11 -11
0 -5 5 -7 11 -3 19 12 -1 -39 -23 -59 -20 -17 -82 -18 -107 -3 -5 3 -24 3 -42
-1 -24 -4 -55 -28 -106 -81 -50 -51 -77 -72 -88 -68 -9 3 -13 2 -10 -4 3 -6 3
-10 -2 -11 -4 0 -27 -2 -51 -5 -46 -5 -112 11 -112 27 0 6 4 8 8 5 5 -3 9 1 9
9 0 12 -3 12 -14 3 -24 -20 -71 50 -64 95 0 4 -3 7 -7 7 -4 0 -9 14 -10 32 -3
39 7 90 16 84 4 -2 7 6 8 17 0 12 2 33 5 46 2 13 -1 26 -8 28 -19 7 -50 -35
-94 -126 -60 -125 -139 -240 -211 -307 -35 -32 -118 -92 -185 -131 -115 -69
-144 -95 -123 -108 12 -7 67 1 104 15 19 7 25 7 21 -1 -5 -7 -2 -7 11 0 40 21
87 32 94 20 5 -7 10 -4 14 7 3 9 9 14 12 11 6 -5 32 7 77 37 22 15 30 16 42 6
9 -8 15 -8 15 -2 0 6 -5 12 -12 14 -17 6 43 79 62 75 10 -2 14 -13 13 -32 0
-17 1 -24 4 -18 3 10 10 10 26 2 19 -9 20 -8 7 3 -24 22 -41 56 -30 63 6 3 10
1 10 -5 0 -6 4 -9 8 -6 5 3 9 0 9 -7 0 -18 54 -97 66 -97 6 0 7 -3 3 -7 -4 -4
8 -14 26 -23 18 -9 32 -22 30 -29 -1 -7 2 -10 8 -6 6 3 8 11 5 16 -4 5 -1 9 4
9 6 0 11 -8 11 -17 0 -15 2 -15 9 -4 5 8 16 11 26 7 10 -3 25 -1 33 6 12 10
14 10 8 1 -4 -7 -3 -13 2 -13 6 0 12 7 16 15 3 8 10 15 16 15 6 0 9 -4 6 -9
-4 -5 4 -7 16 -4 19 4 20 3 8 -6 -18 -13 -1 -15 19 -2 11 7 9 10 -8 16 -22 7
-27 20 -12 29 5 4 12 0 14 -6 3 -7 6 -4 6 8 1 23 40 64 62 64 12 0 12 2 -1 11
-12 8 -11 9 5 7 13 -3 19 -10 17 -23 -3 -18 -2 -18 13 2 15 21 14 25 -1 48
-15 23 -13 30 10 26 5 -1 6 5 3 14 -7 18 9 21 17 3 4 -7 4 -3 2 9 -4 22 29 62
55 67 8 2 21 6 30 10 23 10 52 4 65 -13 8 -11 15 -11 32 -2 12 6 22 16 22 21
0 17 18 11 23 -7 2 -10 3 -6 1 9 -3 20 0 26 11 21 10 -3 15 1 15 13 0 9 3 15
6 11 3 -3 14 2 25 11 11 9 23 17 27 16 4 0 13 6 20 13 14 14 72 18 72 5 0 -4
-5 -13 -12 -20 -7 -7 -8 -12 -4 -12 5 0 15 8 22 18 13 16 13 16 14 -2 0 -19 0
-19 14 -1 8 12 19 16 30 12 10 -4 23 -4 29 0 15 9 37 14 60 14 9 0 15 4 12 8
-2 5 2 14 10 21 8 7 15 10 15 6 0 -3 14 8 31 26 17 18 28 27 24 21 -3 -7 -1
-13 4 -13 6 0 11 6 12 13 0 6 17 26 37 42 20 17 32 23 28 15 -5 -8 1 -5 14 8
21 22 23 22 41 6 11 -10 19 -12 19 -6 0 7 -4 12 -10 12 -5 0 -10 5 -10 11 0 5
5 7 10 4 6 -3 10 -1 10 5 0 6 4 9 10 5 5 -3 7 -12 4 -19 -3 -8 -1 -17 5 -21 7
-4 8 0 4 11 -5 13 -3 15 8 9 12 -7 12 -6 -1 9 -13 17 -10 22 35 62 28 24 58
47 68 50 9 3 15 9 12 14 -3 4 2 13 10 20 8 7 15 9 15 4 0 -11 20 23 53 89 13
26 27 44 32 40 4 -5 5 -3 2 3 -3 6 -2 27 4 47 6 24 7 43 0 54 -8 15 -12 13
-28 -17z m-853 -650 c-19 -13 -30 -13 -30 0 0 6 10 10 23 10 18 0 19 -2 7 -10z
m-630 -104 c0 -5 -3 -6 -7 -3 -3 4 -12 2 -20 -4 -16 -14 -17 -5 -1 21 9 14 14
16 20 7 4 -7 8 -16 8 -21z m420 -50 c0 -6 -7 -3 -14 6 -7 10 -17 14 -21 10 -5
-4 -5 -1 -1 6 6 10 11 10 22 1 8 -6 14 -17 14 -23z"/>
<path d="M2753 2779 c15 -12 24 -26 20 -32 -3 -7 -2 -9 2 -4 14 12 13 46 -1
40 -6 -2 -15 0 -19 6 -3 6 -12 11 -18 11 -7 0 0 -10 16 -21z"/>
<path d="M2876 2792 c-3 -4 4 -9 15 -9 23 -2 25 3 4 10 -8 4 -16 3 -19 -1z"/>
<path d="M2636 2777 c3 -10 9 -15 12 -12 3 3 0 11 -7 18 -10 9 -11 8 -5 -6z"/>
<path d="M2672 2781 c-11 -7 -10 -9 3 -14 11 -5 14 -3 9 5 -5 8 -2 9 10 5 10
-4 15 -3 11 3 -7 12 -16 12 -33 1z"/>
<path d="M2591 2763 c7 -12 15 -20 18 -17 3 2 -3 12 -13 22 -17 16 -18 16 -5
-5z"/>
<path d="M2712 2764 c-7 -8 -8 -14 -3 -14 10 0 25 19 20 25 -2 1 -10 -3 -17
-11z"/>
<path d="M2814 2766 c1 -8 5 -18 8 -22 4 -3 5 1 4 10 -1 8 -5 18 -8 22 -4 3
-5 -1 -4 -10z"/>
<path d="M2962 2773 c-6 -3 -10 -9 -6 -14 3 -5 1 -9 -4 -9 -5 0 -9 -6 -9 -12
0 -7 -22 -65 -49 -128 -45 -106 -48 -121 -47 -189 2 -81 -8 -105 -56 -134
l-31 -18 -17 41 c-10 22 -21 40 -25 40 -5 0 -8 8 -8 17 0 9 -3 13 -7 10 -3 -4
-12 -2 -19 4 -7 6 -30 12 -50 14 -31 3 -41 -2 -77 -39 -55 -55 -137 -222 -120
-240 4 -3 1 -6 -6 -6 -7 0 -9 -5 -4 -12 4 -7 8 -15 8 -18 6 -44 57 -80 118
-83 29 -2 37 -6 38 -22 0 -18 1 -18 9 3 5 12 15 22 22 22 9 0 9 -3 -2 -10 -13
-9 -13 -10 0 -10 9 0 11 -3 5 -8 -5 -4 -15 -16 -22 -27 -6 -11 -16 -19 -22
-18 -6 2 -8 -3 -6 -10 5 -17 -173 -151 -250 -188 -11 -6 -38 -21 -60 -34 -22
-14 -50 -30 -62 -36 -26 -14 -29 -27 -9 -35 20 -7 189 36 280 72 14 5 17 4 12
-4 -4 -7 -2 -12 3 -12 6 0 11 4 11 10 0 5 14 17 31 26 17 9 41 27 54 42 15 17
26 23 36 16 8 -4 23 -10 34 -11 16 -2 17 -1 5 6 -8 5 -17 8 -21 5 -14 -8 -21
17 -8 32 12 15 24 11 24 -9 0 -5 7 -12 15 -14 13 -4 13 -3 0 6 -8 6 -11 11 -6
11 5 0 4 6 -2 13 -8 10 -7 23 5 50 10 20 21 37 26 37 4 0 5 -4 2 -10 -3 -5 -1
-10 5 -10 7 0 9 8 5 20 -9 27 11 61 33 54 16 -5 16 -5 -1 6 -9 6 -15 15 -12
21 4 5 17 2 31 -7 13 -9 27 -14 30 -11 3 3 -3 8 -14 11 -11 4 -23 14 -26 23
-10 25 3 29 20 5 8 -12 23 -22 32 -21 14 0 14 2 2 7 -8 4 -16 18 -18 31 -2 21
0 22 15 10 17 -13 17 -13 4 4 -14 17 -16 18 -27 2 -8 -10 -14 -12 -19 -6 -3 6
-1 11 4 11 6 0 10 3 10 8 -4 21 3 23 26 8 14 -9 25 -12 25 -6 0 5 -5 10 -12
10 -9 0 -9 3 0 12 7 7 12 16 12 22 0 5 -7 1 -15 -10 -12 -16 -14 -17 -15 -3 0
18 26 33 41 23 6 -3 7 -15 4 -27 -5 -20 -4 -20 7 1 9 18 9 25 0 31 -9 5 -5 12
12 21 14 7 23 17 20 21 -2 5 -14 -1 -24 -11 -11 -11 -25 -20 -31 -20 -5 0 2
13 18 29 17 18 32 26 38 20 5 -5 13 -9 19 -9 5 0 1 6 -10 14 -11 8 -15 18 -10
23 5 4 11 2 13 -4 3 -7 9 -13 15 -13 6 0 3 9 -6 19 -11 13 -14 21 -7 26 6 3
14 0 17 -8 3 -8 14 -17 25 -20 17 -5 16 -2 -6 19 -23 21 -25 27 -13 42 7 9 18
20 23 24 6 4 7 8 2 8 -4 0 -1 10 7 23 8 12 15 25 15 30 1 22 14 57 22 57 5 0
9 5 9 11 0 5 -4 7 -10 4 -6 -3 -7 1 -4 9 3 9 9 14 13 11 4 -2 8 2 8 10 0 8 -3
12 -7 10 -4 -3 -7 12 -6 33 1 25 7 41 21 50 20 13 20 13 -1 7 -19 -5 -20 -1
-19 63 1 37 5 73 9 80 4 7 3 12 -2 12 -5 0 -8 12 -6 27 3 33 -6 52 -24 46z"/>
<path d="M2528 2758 c-7 -17 7 -19 30 -5 7 5 12 4 12 -2 0 -6 5 -11 11 -11 8
0 8 5 -1 15 -9 11 -16 12 -25 5 -9 -8 -14 -7 -17 2 -3 8 -6 7 -10 -4z"/>
<path d="M2453 2743 c1 -18 4 -20 17 -10 25 19 26 20 8 14 -9 -3 -19 -1 -21 6
-3 7 -4 2 -4 -10z"/>
<path d="M2655 2751 c-3 -5 -2 -12 3 -15 5 -3 9 1 9 9 0 17 -3 19 -12 6z"/>
<path d="M2390 2746 c0 -2 8 -10 18 -17 15 -13 16 -12 3 4 -13 16 -21 21 -21
13z"/>
<path d="M2425 2725 c0 -13 3 -21 8 -18 4 2 7 10 7 18 0 8 -3 16 -7 18 -5 3
-8 -5 -8 -18z"/>
<path d="M2316 2723 c-4 -9 -2 -21 4 -27 8 -8 9 -6 4 8 -5 13 -4 17 4 12 7 -4
21 -9 31 -11 15 -3 18 1 14 12 -5 12 -3 14 7 8 9 -6 11 -4 5 5 -6 10 -11 9
-20 -4 -11 -15 -14 -15 -28 -2 -13 14 -16 14 -21 -1z"/>
<path d="M2475 2721 c-3 -5 -2 -12 3 -15 5 -3 9 1 9 9 0 17 -3 19 -12 6z"/>
<path d="M2163 2701 c0 -11 5 -18 9 -15 4 3 5 11 1 19 -7 21 -12 19 -10 -4z"/>
<path d="M2189 2708 c7 -9 9 -23 5 -30 -6 -10 -4 -11 7 0 11 10 10 15 -6 30
-17 15 -18 15 -6 0z"/>
<path d="M2210 2715 c0 -2 10 -10 23 -16 20 -11 21 -11 8 4 -13 16 -31 23 -31
12z"/>
<path d="M2625 2710 c-3 -6 1 -7 9 -4 18 7 21 14 7 14 -6 0 -13 -4 -16 -10z"/>
<path d="M2279 2683 c-12 -16 -12 -17 2 -6 9 7 20 9 24 5 5 -4 5 -1 1 6 -9 16
-11 15 -27 -5z"/>
<path d="M1900 2675 c-7 -8 -9 -15 -6 -15 4 0 14 7 22 15 9 8 11 15 6 15 -5 0
-15 -7 -22 -15z"/>
<path d="M1841 2666 c-8 -10 -9 -16 -1 -21 6 -4 9 -2 8 3 -2 6 1 9 7 9 5 -1 9
-9 7 -17 -2 -13 -1 -13 7 -1 10 15 4 41 -9 41 -4 0 -13 -6 -19 -14z"/>
<path d="M2060 2676 c0 -2 7 -7 16 -10 8 -3 12 -2 9 4 -6 10 -25 14 -25 6z"/>
<path d="M2335 2670 c3 -5 8 -10 11 -10 2 0 4 5 4 10 0 6 -5 10 -11 10 -5 0
-7 -4 -4 -10z"/>
<path d="M3033 2665 c0 -8 4 -12 9 -9 5 3 6 10 3 15 -9 13 -12 11 -12 -6z"/>
<path d="M4855 2671 c-3 -5 -2 -12 3 -15 5 -3 9 1 9 9 0 17 -3 19 -12 6z"/>
<path d="M1705 2659 c-4 -6 -14 -8 -24 -4 -13 5 -14 4 -3 -6 10 -11 15 -10 29
4 10 9 14 17 11 17 -4 0 -10 -5 -13 -11z"/>
<path d="M1993 2657 c0 -8 6 -14 14 -14 9 0 10 4 2 14 -6 7 -12 13 -14 13 -1
0 -2 -6 -2 -13z"/>
<path d="M2114 2650 c0 -13 4 -16 10 -10 7 7 7 13 0 20 -6 6 -10 3 -10 -10z"/>
<path d="M2215 2661 c-3 -5 -2 -12 3 -15 5 -3 9 1 9 9 0 17 -3 19 -12 6z"/>
<path d="M1965 2650 c3 -5 8 -10 11 -10 2 0 4 5 4 10 0 6 -5 10 -11 10 -5 0
-7 -4 -4 -10z"/>
<path d="M1606 2634 c-11 -8 -16 -14 -10 -14 13 0 39 18 34 24 -3 2 -14 -2
-24 -10z"/>
<path d="M1896 2641 c-4 -5 3 -7 14 -4 23 6 26 13 6 13 -8 0 -17 -4 -20 -9z"/>
<path d="M475 2630 c6 -10 4 -12 -11 -6 -15 6 -17 5 -6 -5 9 -9 15 -10 23 -2
8 8 7 13 -2 18 -8 6 -10 4 -4 -5z"/>
<path d="M1267 2629 c7 -7 15 -10 18 -7 3 3 -2 9 -12 12 -14 6 -15 5 -6 -5z"/>
<path d="M1430 2630 c0 -5 5 -10 11 -10 5 0 7 5 4 10 -3 6 -8 10 -11 10 -2 0
-4 -4 -4 -10z"/>
<path d="M1655 2631 c-6 -11 13 -26 22 -17 4 3 1 6 -6 6 -7 0 -9 5 -6 10 3 6
4 10 1 10 -3 0 -7 -4 -11 -9z"/>
<path d="M1713 2620 c1 -21 10 -18 13 5 1 8 -2 15 -6 15 -5 0 -8 -9 -7 -20z"/>
<path d="M2055 2630 c3 -5 8 -10 11 -10 2 0 4 5 4 10 0 6 -5 10 -11 10 -5 0
-7 -4 -4 -10z"/>
<path d="M515 2621 c-3 -5 -2 -12 3 -15 5 -3 9 1 9 9 0 17 -3 19 -12 6z"/>
<path d="M1144 2608 c1 -34 2 -34 17 -7 6 13 7 19 1 15 -6 -3 -12 0 -15 6 -2
7 -4 1 -3 -14z"/>
<path d="M1296 2615 c-3 -8 -1 -15 4 -15 6 0 10 7 10 15 0 8 -2 15 -4 15 -2 0
-6 -7 -10 -15z"/>
<path d="M1572 2606 c1 -14 5 -23 9 -20 7 4 0 44 -7 44 -2 0 -3 -11 -2 -24z"/>
<path d="M1902 2600 c-18 -17 -30 -30 -28 -30 9 0 -87 -85 -234 -207 -124
-103 -200 -183 -174 -183 7 0 127 87 184 135 20 16 52 41 70 55 18 14 45 37
60 52 15 15 30 24 34 21 3 -4 6 -2 6 4 0 6 16 28 36 49 34 37 68 90 69 107 0
4 7 12 15 17 8 5 11 10 5 10 -5 -1 -25 -14 -43 -30z"/>
<path d="M540 2611 c0 -5 9 -7 20 -4 16 4 19 2 14 -13 -5 -15 -4 -16 4 -4 6 8
8 18 6 22 -7 11 -44 10 -44 -1z"/>
<path d="M902 2612 c-8 -6 -2 -9 18 -9 20 0 26 3 18 9 -7 4 -15 8 -18 8 -3 0
-11 -4 -18 -8z"/>
<path d="M1180 2616 c0 -2 7 -7 16 -10 8 -3 12 -2 9 4 -6 10 -25 14 -25 6z"/>
<path d="M1477 2605 c-4 -8 -3 -16 1 -19 4 -3 9 4 9 15 2 23 -3 25 -10 4z"/>
<path d="M4810 2610 c0 -5 5 -10 10 -10 6 0 10 5 10 10 0 6 -4 10 -10 10 -5 0
-10 -4 -10 -10z"/>
<path d="M4846 2608 c3 -5 10 -6 15 -3 13 9 11 12 -6 12 -8 0 -12 -4 -9 -9z"/>
<path d="M790 2602 c0 -5 7 -9 15 -9 8 0 12 4 9 9 -3 4 -9 8 -15 8 -5 0 -9 -4
-9 -8z"/>
<path d="M870 2601 c0 -6 4 -13 10 -16 6 -3 7 1 4 9 -7 18 -14 21 -14 7z"/>
<path d="M953 2595 c-10 -11 -9 -13 6 -12 11 1 17 7 14 14 -6 16 -5 16 -20 -2z"/>
<path d="M1037 2597 c-3 -8 1 -14 8 -14 7 0 11 6 8 14 -3 7 -6 13 -8 13 -2 0
-5 -6 -8 -13z"/>
<path d="M1107 2597 c-3 -8 0 -14 7 -14 7 0 13 6 13 14 0 7 -4 13 -8 13 -4 0
-9 -6 -12 -13z"/>
<path d="M495 2590 c3 -5 8 -10 11 -10 2 0 4 5 4 10 0 6 -5 10 -11 10 -5 0 -7
-4 -4 -10z"/>
<path d="M1535 2590 c3 -5 8 -10 11 -10 2 0 4 5 4 10 0 6 -5 10 -11 10 -5 0
-7 -4 -4 -10z"/>
<path d="M593 2575 c0 -8 4 -12 9 -9 5 3 6 10 3 15 -9 13 -12 11 -12 -6z"/>
<path d="M908 2583 c7 -3 16 -2 19 1 4 3 -2 6 -13 5 -11 0 -14 -3 -6 -6z"/>
<path d="M998 2583 c7 -3 16 -2 19 1 4 3 -2 6 -13 5 -11 0 -14 -3 -6 -6z"/>
<path d="M1195 2579 c-4 -6 -5 -12 -2 -15 2 -3 7 2 10 11 7 17 1 20 -8 4z"/>
<path d="M1270 2586 c0 -2 8 -10 18 -17 15 -13 16 -12 3 4 -13 16 -21 21 -21
13z"/>
<path d="M4790 2580 c-9 -6 -10 -10 -3 -10 6 0 15 5 18 10 8 12 4 12 -15 0z"/>
<path d="M655 2570 c3 -5 8 -10 11 -10 2 0 4 5 4 10 0 6 -5 10 -11 10 -5 0 -7
-4 -4 -10z"/>
<path d="M1310 2576 c0 -2 7 -7 16 -10 8 -3 12 -2 9 4 -6 10 -25 14 -25 6z"/>
<path d="M3006 2572 c-2 -4 4 -8 14 -8 10 0 16 4 14 8 -3 4 -9 8 -14 8 -5 0
-11 -4 -14 -8z"/>
<path d="M4816 2557 c3 -10 9 -15 12 -12 3 3 0 11 -7 18 -10 9 -11 8 -5 -6z"/>
<path d="M1015 2550 c-3 -5 -1 -10 4 -10 6 0 11 5 11 10 0 6 -2 10 -4 10 -3 0
-8 -4 -11 -10z"/>
<path d="M4774 2549 c-3 -6 -3 -13 0 -16 3 -4 6 -1 6 5 0 6 7 9 15 6 8 -4 15
-4 15 -1 0 11 -30 16 -36 6z"/>
<path d="M3050 2531 c0 -6 4 -13 10 -16 6 -3 7 1 4 9 -7 18 -14 21 -14 7z"/>
<path d="M4750 2521 c0 -7 -5 -9 -12 -5 -7 5 -8 3 -3 -5 5 -9 10 -10 18 -2 6
6 8 14 4 18 -4 3 -7 1 -7 -6z"/>
<path d="M3003 2505 c-3 -9 -3 -18 -1 -21 3 -3 8 4 11 16 6 23 -1 27 -10 5z"/>
<path d="M4712 2487 c-8 -10 -6 -13 11 -14 12 0 16 1 9 4 -6 3 -10 9 -6 14 8
14 -2 11 -14 -4z"/>
<path d="M4671 2477 c-16 -20 8 -40 29 -25 12 8 12 9 -2 4 -20 -6 -35 10 -16
17 7 2 10 7 7 11 -3 4 -11 0 -18 -7z"/>
<path d="M3015 2469 c-4 -6 -5 -12 -2 -15 2 -3 7 2 10 11 7 17 1 20 -8 4z"/>
<path d="M3033 2448 c1 -7 -4 -12 -11 -10 -8 1 -11 -2 -7 -8 5 -8 11 -8 21 1
7 6 11 15 8 20 -8 13 -14 11 -11 -3z"/>
<path d="M4636 2445 c-9 -26 -7 -32 5 -12 6 10 9 21 6 23 -2 3 -7 -2 -11 -11z"/>
<path d="M4657 2433 c-10 -10 -8 -33 3 -33 5 0 6 7 3 17 -5 12 -3 14 7 8 9 -5
11 -4 6 3 -8 14 -10 14 -19 5z"/>
<path d="M4696 2432 c-3 -4 4 -9 15 -9 23 -2 25 3 4 10 -8 4 -16 3 -19 -1z"/>
<path d="M2150 2364 c-11 -25 -20 -50 -20 -55 0 -6 -16 -58 -36 -117 -52 -157
-97 -235 -184 -322 -80 -80 -216 -187 -232 -182 -5 1 -7 -2 -4 -7 4 -5 2 -12
-4 -16 -5 -3 -10 -15 -10 -26 0 -13 7 -19 23 -19 13 0 29 -6 37 -12 12 -11 12
-10 2 3 -11 15 -7 17 30 23 24 4 45 6 48 6 3 0 28 10 55 24 l50 24 18 -21 18
-22 -10 22 c-14 29 -14 38 2 26 18 -15 46 -12 40 5 -5 11 -7 11 -14 1 -4 -8
-10 -11 -13 -8 -3 3 18 25 47 50 28 24 53 51 55 59 5 19 24 31 40 25 20 -7 27
24 8 38 -14 11 -14 15 -1 41 8 15 17 38 19 50 6 34 36 150 43 166 3 8 5 18 5
23 -1 4 3 28 9 55 28 122 33 198 12 206 -9 4 -20 -9 -33 -40z m-53 -520 c2 -5
-5 -10 -16 -10 -11 0 -17 5 -14 14 6 14 25 12 30 -4z"/>
<path d="M3015 2390 c-3 -5 -1 -10 4 -10 6 0 11 5 11 10 0 6 -2 10 -4 10 -3 0
-8 -4 -11 -10z"/>
<path d="M2977 2365 c-14 -20 -15 -24 -2 -19 8 3 15 10 15 16 0 5 4 6 10 3 6
-3 7 1 4 9 -7 20 -5 20 -27 -9z"/>
<path d="M4542 2370 c0 -14 2 -19 5 -12 2 6 2 18 0 25 -3 6 -5 1 -5 -13z"/>
<path d="M3479 2363 c-13 -16 -12 -17 4 -4 16 13 21 21 13 21 -2 0 -10 -8 -17
-17z"/>
<path d="M4666 2368 c3 -5 10 -6 15 -3 13 9 11 12 -6 12 -8 0 -12 -4 -9 -9z"/>
<path d="M1776 2352 c-3 -5 1 -9 9 -9 8 0 12 4 9 9 -3 4 -7 8 -9 8 -2 0 -6 -4
-9 -8z"/>
<path d="M4500 2356 c0 -2 7 -6 15 -10 8 -3 15 -1 15 4 0 6 -7 10 -15 10 -8 0
-15 -2 -15 -4z"/>
<path d="M4477 2336 c-4 -11 -5 -21 -2 -24 3 -3 5 0 5 7 0 7 4 10 9 6 5 -3 13
0 17 6 4 7 3 9 -4 5 -5 -3 -12 -1 -14 6 -3 7 -7 5 -11 -6z"/>
<path d="M2755 2331 c-3 -5 -2 -12 3 -15 5 -3 9 1 9 9 0 17 -3 19 -12 6z"/>
<path d="M2980 2331 c0 -5 7 -12 16 -15 14 -5 15 -4 4 9 -14 17 -20 19 -20 6z"/>
<path d="M4030 2331 c0 -6 4 -12 8 -15 5 -3 9 1 9 9 0 8 -4 15 -9 15 -4 0 -8
-4 -8 -9z"/>
<path d="M4536 2323 c-6 -14 -5 -15 5 -6 7 7 10 15 7 18 -3 3 -9 -2 -12 -12z"/>
<path d="M4596 2323 c-6 -14 -5 -15 5 -6 7 7 10 15 7 18 -3 3 -9 -2 -12 -12z"/>
<path d="M1726 2308 c3 -5 10 -6 15 -3 13 9 11 12 -6 12 -8 0 -12 -4 -9 -9z"/>
<path d="M2956 2303 c-6 -14 -5 -15 5 -6 7 7 10 15 7 18 -3 3 -9 -2 -12 -12z"/>
<path d="M4415 2300 c-9 -15 21 -23 42 -11 15 9 13 10 -11 5 -21 -5 -27 -4
-22 5 4 6 5 11 2 11 -3 0 -8 -5 -11 -10z"/>
<path d="M4516 2288 c3 -5 10 -6 15 -3 13 9 11 12 -6 12 -8 0 -12 -4 -9 -9z"/>
<path d="M2993 2275 c0 -8 4 -12 9 -9 5 3 6 10 3 15 -9 13 -12 11 -12 -6z"/>
<path d="M2216 2272 c-3 -5 1 -9 9 -9 8 0 12 4 9 9 -3 4 -7 8 -9 8 -2 0 -6 -4
-9 -8z"/>
<path d="M3484 2269 c-3 -6 -2 -15 3 -20 5 -5 9 -1 9 11 0 23 -2 24 -12 9z"/>
<path d="M4406 2267 c3 -10 9 -15 12 -12 3 3 0 11 -7 18 -10 9 -11 8 -5 -6z"/>
<path d="M4455 2270 c-4 -6 -1 -9 7 -8 7 2 12 -3 10 -10 -1 -8 2 -11 8 -7 8 5
7 11 -1 21 -14 17 -16 17 -24 4z"/>
<path d="M1660 2250 c-9 -6 -10 -10 -3 -10 6 0 15 5 18 10 8 12 4 12 -15 0z"/>
<path d="M2920 2250 c0 -5 5 -10 10 -10 6 0 10 5 10 10 0 6 -4 10 -10 10 -5 0
-10 -4 -10 -10z"/>
<path d="M2959 2243 c-13 -16 -12 -17 4 -4 16 13 21 21 13 21 -2 0 -10 -8 -17
-17z"/>
<path d="M4368 2251 c8 -5 14 -12 15 -17 3 -12 26 -14 33 -3 3 5 0 8 -8 7 -7
-2 -12 2 -11 7 1 6 -8 12 -20 12 -15 2 -18 0 -9 -6z"/>
<path d="M644 2209 c-9 -18 -18 -53 -21 -78 -2 -25 -6 -59 -7 -76 -2 -16 -4
-35 -5 -41 -4 -39 -134 -136 -161 -119 -5 3 -11 1 -14 -3 -3 -5 -17 -7 -31 -5
-13 3 -22 9 -20 13 3 5 0 12 -6 16 -8 4 -9 3 -5 -4 8 -14 -13 -16 -33 -3 -8 5
-10 14 -6 21 5 9 4 11 -3 6 -7 -4 -12 -1 -13 6 0 7 -2 20 -4 29 -3 18 23 99
44 137 7 13 11 31 9 40 -3 10 -22 -19 -47 -70 -36 -74 -43 -98 -45 -158 -1
-38 0 -70 4 -70 4 0 13 -11 20 -25 7 -14 20 -25 27 -25 8 0 12 -3 10 -7 -8
-13 122 -8 135 5 6 6 17 12 24 12 18 0 85 73 110 119 12 22 24 38 27 35 3 -3
5 1 4 8 -1 36 4 59 12 53 5 -3 13 0 17 6 4 8 3 9 -4 5 -8 -5 -12 1 -12 14 0
12 3 19 8 17 4 -3 7 16 7 41 0 26 2 66 6 90 7 50 -4 54 -27 11z"/>
<path d="M748 2202 c-10 -23 -18 -49 -18 -58 0 -9 -5 -12 -11 -8 -8 5 -9 2 -1
-12 8 -14 6 -21 -6 -31 -10 -7 -12 -13 -7 -12 22 3 27 -2 15 -16 -7 -8 -8 -15
-3 -15 5 0 7 -16 5 -35 -2 -19 -7 -33 -11 -31 -4 3 -5 -11 -3 -30 2 -19 -1
-40 -7 -47 -8 -10 -7 -14 4 -14 8 0 15 4 15 9 0 5 4 7 9 3 5 -3 13 0 17 6 4 8
3 9 -4 5 -17 -10 -15 9 1 23 8 6 18 7 22 3 5 -4 5 -1 1 6 -4 7 -12 10 -17 7
-12 -8 -11 9 2 22 14 14 25 143 19 213 l-5 55 -17 -43z"/>
<path d="M1554 2222 c-6 -4 -14 -17 -18 -30 -4 -12 -11 -20 -14 -18 -4 2 -8
-8 -9 -22 -1 -15 -3 -56 -6 -92 -3 -36 -5 -80 -6 -98 -1 -23 -5 -31 -13 -26
-8 5 -9 2 -5 -9 5 -13 1 -16 -13 -14 -34 5 -46 24 -32 48 8 12 9 18 3 14 -15
-9 -14 18 5 92 22 88 14 96 -25 24 -49 -93 -147 -166 -276 -206 -61 -19 -72
-21 -165 -31 -30 -3 -61 -7 -67 -9 -7 -3 -13 -1 -13 3 0 4 -19 7 -42 5 -25 -1
-46 3 -50 10 -4 7 -8 8 -8 2 0 -7 -15 -9 -36 -7 -20 3 -32 7 -26 11 6 3 -6 7
-26 8 -46 3 -63 6 -81 17 -9 6 -12 5 -8 0 3 -6 2 -16 -3 -24 -7 -12 -11 -12
-26 1 -16 13 -16 12 -4 -7 11 -18 9 -26 -16 -65 -16 -24 -33 -47 -39 -51 -5
-4 -7 -8 -3 -8 8 0 -18 -34 -54 -71 -15 -16 -15 -19 5 -36 11 -10 17 -12 13
-5 -5 8 0 12 13 12 12 0 21 5 21 11 0 5 6 7 13 3 6 -4 9 -4 5 1 -4 4 2 19 12
33 11 13 20 31 20 38 0 8 4 14 10 14 5 0 9 3 9 8 -4 24 3 32 26 28 13 -3 28
-7 33 -10 13 -8 95 -18 141 -17 24 1 51 -4 59 -11 13 -11 14 -11 8 0 -6 11 2
13 38 9 26 -2 49 0 51 4 3 4 13 6 23 4 9 -1 28 2 41 7 17 6 27 5 33 -4 6 -10
8 -9 8 3 0 9 6 16 13 16 6 0 21 4 31 9 15 6 18 4 12 -7 -4 -8 -1 -6 8 5 9 11
22 16 31 12 9 -3 14 -2 11 2 -5 8 63 47 73 42 2 -1 7 4 12 12 5 7 12 13 16 13
9 0 26 13 74 58 34 31 46 34 46 12 0 -8 -5 -15 -10 -15 -5 0 -3 -8 4 -17 10
-11 10 -14 2 -9 -7 4 -13 2 -13 -3 0 -6 6 -11 13 -11 8 0 7 -4 -3 -10 -10 -6
-11 -10 -2 -10 6 0 12 -9 12 -20 0 -29 39 -45 70 -28 14 8 26 20 28 28 2 8 8
17 13 18 5 2 9 12 9 23 0 10 5 19 10 19 5 0 9 3 9 8 -5 22 15 91 24 85 6 -4 7
-1 2 8 -12 19 -6 102 8 111 9 6 9 8 -1 8 -9 0 -10 8 -5 28 3 15 6 35 5 45 0 9
3 15 8 12 6 -3 7 1 4 9 -7 18 -6 18 -20 8z"/>
<path d="M3508 2223 c6 -2 10 -8 8 -12 -3 -4 1 -8 9 -8 11 0 12 4 4 14 -6 7
-17 13 -23 12 -7 0 -6 -2 2 -6z"/>
<path d="M4126 2214 c-9 -24 -2 -26 12 -4 7 11 8 20 3 20 -5 0 -12 -7 -15 -16z"/>
<path d="M1595 2210 c3 -5 8 -10 11 -10 2 0 4 5 4 10 0 6 -5 10 -11 10 -5 0
-7 -4 -4 -10z"/>
<path d="M2186 2212 c-2 -4 4 -8 14 -8 10 0 16 4 14 8 -3 4 -9 8 -14 8 -5 0
-11 -4 -14 -8z"/>
<path d="M4231 2201 c-7 -13 -6 -18 4 -18 7 0 11 6 8 14 -4 9 0 11 11 7 9 -3
16 -4 16 -1 0 15 -31 14 -39 -2z"/>
<path d="M4322 2206 c7 -8 15 -12 17 -11 5 6 -10 25 -20 25 -5 0 -4 -6 3 -14z"/>
<path d="M4355 2210 c-3 -5 -1 -10 4 -10 6 0 11 5 11 10 0 6 -2 10 -4 10 -3 0
-8 -4 -11 -10z"/>
<path d="M4150 2201 c0 -10 19 -25 25 -20 1 2 -3 10 -11 17 -8 7 -14 8 -14 3z"/>
<path d="M4070 2180 c-13 -11 -19 -20 -14 -20 13 1 61 40 48 40 -6 0 -21 -9
-34 -20z"/>
<path d="M2175 2171 c-3 -5 -2 -12 3 -15 5 -3 9 1 9 9 0 17 -3 19 -12 6z"/>
<path d="M2925 2170 c3 -5 8 -10 11 -10 2 0 4 5 4 10 0 6 -5 10 -11 10 -5 0
-7 -4 -4 -10z"/>
<path d="M1615 2150 c-3 -5 -1 -10 4 -10 6 0 11 5 11 10 0 6 -2 10 -4 10 -3 0
-8 -4 -11 -10z"/>
<path d="M4075 2150 c-3 -6 1 -7 9 -4 18 7 21 14 7 14 -6 0 -13 -4 -16 -10z"/>
<path d="M4116 2148 c3 -5 10 -6 15 -3 13 9 11 12 -6 12 -8 0 -12 -4 -9 -9z"/>
<path d="M456 2111 c-14 -22 -26 -43 -26 -45 0 -3 11 -17 25 -32 25 -27 26
-27 45 -8 32 32 34 65 6 97 l-25 29 -25 -41z"/>
<path d="M4038 2143 c7 -3 16 -2 19 1 4 3 -2 6 -13 5 -11 0 -14 -3 -6 -6z"/>
<path d="M2199 2123 c-13 -16 -12 -17 4 -4 9 7 17 15 17 17 0 8 -8 3 -21 -13z"/>
<path d="M4090 2129 c0 -5 5 -7 10 -4 6 3 10 8 10 11 0 2 -4 4 -10 4 -5 0 -10
-5 -10 -11z"/>
<path d="M2872 2121 c-11 -7 -11 -9 0 -14 9 -3 15 1 15 9 0 8 -1 14 -1 14 -1
0 -7 -4 -14 -9z"/>
<path d="M3890 2122 c0 -7 -4 -11 -9 -7 -6 3 -14 -3 -20 -13 -7 -14 -6 -19 4
-19 7 0 11 6 8 13 -7 19 25 11 40 -11 13 -17 14 -17 12 1 0 10 -5 20 -9 21 -5
1 -13 7 -17 15 -7 10 -9 10 -9 0z"/>
<path d="M1613 2106 c-3 -5 -1 -6 5 -2 7 4 12 2 12 -3 0 -6 -5 -11 -11 -11 -5
0 -8 -4 -5 -9 3 -4 1 -23 -4 -41 -5 -18 -12 -68 -15 -113 -3 -44 -11 -87 -18
-95 -10 -13 -9 -14 3 -7 12 7 13 6 3 -6 -7 -9 -9 -20 -3 -29 5 -8 11 -12 13
-10 9 12 37 79 37 90 0 6 3 9 8 7 4 -3 7 43 7 101 0 59 3 115 7 124 6 13 3 16
-13 15 -11 -1 -23 -6 -26 -11z"/>
<path d="M4034 2104 c1 -8 4 -15 7 -16 2 -2 3 -1 2 1 -2 2 2 9 7 16 7 8 5 12
-4 12 -8 0 -13 -6 -12 -13z"/>
<path d="M3830 2099 c0 -5 5 -7 10 -4 6 3 10 8 10 11 0 2 -4 4 -10 4 -5 0 -10
-5 -10 -11z"/>
<path d="M2193 2093 c4 -3 1 -13 -6 -22 -11 -14 -10 -14 5 -2 16 12 16 31 1
31 -4 0 -3 -3 0 -7z"/>
<path d="M3799 2083 c-13 -16 -12 -17 4 -4 9 7 17 15 17 17 0 8 -8 3 -21 -13z"/>
<path d="M3973 2075 c0 -8 4 -12 9 -9 5 3 6 10 3 15 -9 13 -12 11 -12 -6z"/>
<path d="M2856 2071 c-3 -5 2 -15 12 -22 15 -12 16 -12 5 2 -7 9 -10 19 -6 22
3 4 4 7 0 7 -3 0 -8 -4 -11 -9z"/>
<path d="M2890 2073 c0 -6 8 -17 18 -24 16 -13 16 -13 2 6 -8 11 -16 22 -17
24 -2 2 -3 0 -3 -6z"/>
<path d="M3816 2073 c-10 -10 -7 -33 4 -33 5 0 7 7 4 15 -5 11 -2 13 10 9 9
-3 16 -4 16 -1 0 8 -28 16 -34 10z"/>
<path d="M3875 2070 c-16 -7 -17 -9 -3 -9 9 -1 20 4 23 9 7 11 7 11 -20 0z"/>
<path d="M2155 2061 c-3 -5 -2 -12 3 -15 5 -3 9 1 9 9 0 17 -3 19 -12 6z"/>
<path d="M2827 2036 c-4 -10 -1 -13 8 -9 8 3 12 9 9 14 -7 12 -11 11 -17 -5z"/>
<path d="M536 2032 c-3 -5 1 -9 9 -9 8 0 12 4 9 9 -3 4 -7 8 -9 8 -2 0 -6 -4
-9 -8z"/>
<path d="M2179 2028 c-5 -18 -6 -38 -1 -34 7 8 12 36 6 36 -2 0 -4 -1 -5 -2z"/>
<path d="M3777 2023 c-10 -10 -8 -23 4 -23 5 0 8 4 4 9 -3 5 5 12 17 14 21 4
21 4 2 6 -11 0 -24 -2 -27 -6z"/>
<path d="M1466 2008 c3 -5 10 -6 15 -3 13 9 11 12 -6 12 -8 0 -12 -4 -9 -9z"/>
<path d="M3855 2010 c3 -5 8 -10 11 -10 2 0 4 5 4 10 0 6 -5 10 -11 10 -5 0
-7 -4 -4 -10z"/>
<path d="M653 1995 c0 -8 4 -12 9 -9 5 3 6 10 3 15 -9 13 -12 11 -12 -6z"/>
<path d="M2135 1991 c-3 -5 0 -13 6 -17 7 -4 9 -3 5 4 -3 5 0 13 6 15 9 4 10
6 1 6 -6 1 -14 -3 -18 -8z"/>
<path d="M3800 1990 c-8 -5 -12 -12 -9 -15 4 -3 12 1 19 10 14 17 11 19 -10 5z"/>
<path d="M1469 1973 c-13 -16 -12 -17 4 -4 9 7 17 15 17 17 0 8 -8 3 -21 -13z"/>
<path d="M2516 1977 c3 -10 9 -15 12 -12 3 3 0 11 -7 18 -10 9 -11 8 -5 -6z"/>
<path d="M3293 1985 c4 -5 -3 -15 -15 -22 -13 -7 -18 -12 -12 -13 5 0 18 6 29
13 15 12 16 15 4 22 -8 5 -10 4 -6 0z"/>
<path d="M2135 1949 c-4 -6 -5 -12 -2 -15 2 -3 7 2 10 11 7 17 1 20 -8 4z"/>
<path d="M2162 1948 c-15 -15 -15 -28 0 -28 6 0 8 3 5 7 -4 3 -2 12 4 20 14
16 7 17 -9 1z"/>
<path d="M2752 1943 c-6 -2 -10 -9 -6 -14 8 -14 21 -11 21 6 0 8 -1 15 -1 14
-1 0 -7 -3 -14 -6z"/>
<path d="M3688 1933 c-17 -21 -21 -60 -7 -68 5 -3 6 1 3 10 -5 11 -2 14 12 9
17 -5 17 -5 2 6 -16 10 -15 45 1 35 4 -2 8 2 8 10 0 19 -1 19 -19 -2z"/>
<path d="M3720 1938 c0 -9 7 -19 16 -22 15 -6 15 -4 3 11 -7 10 -15 20 -16 22
-2 2 -3 -3 -3 -11z"/>
<path d="M1566 1928 c3 -5 10 -6 15 -3 13 9 11 12 -6 12 -8 0 -12 -4 -9 -9z"/>
<path d="M2715 1929 c-4 -6 -5 -12 -2 -15 2 -3 7 2 10 11 7 17 1 20 -8 4z"/>
<path d="M3256 1925 c4 -8 8 -15 10 -15 2 0 4 7 4 15 0 8 -4 15 -10 15 -5 0
-7 -7 -4 -15z"/>
<path d="M3280 1936 c0 -2 7 -7 16 -10 8 -3 12 -2 9 4 -6 10 -25 14 -25 6z"/>
<path d="M3326 1932 c-3 -5 1 -9 9 -9 8 0 12 4 9 9 -3 4 -7 8 -9 8 -2 0 -6 -4
-9 -8z"/>
<path d="M2112 1911 c-11 -6 -10 -10 4 -15 9 -4 22 -2 28 4 8 8 6 9 -8 4 -13
-5 -17 -4 -12 4 8 14 6 15 -12 3z"/>
<path d="M2733 1913 c4 -6 1 -14 -5 -16 -10 -4 -10 -6 0 -6 7 -1 10 -6 6 -13
-4 -6 -3 -8 4 -5 12 8 10 32 -3 44 -4 4 -5 3 -2 -4z"/>
<path d="M2790 1915 c0 -5 5 -17 10 -25 5 -8 10 -10 10 -5 0 6 -5 17 -10 25
-5 8 -10 11 -10 5z"/>
<path d="M3775 1910 c3 -5 8 -10 11 -10 2 0 4 5 4 10 0 6 -5 10 -11 10 -5 0
-7 -4 -4 -10z"/>
<path d="M3716 1896 c10 -8 21 -12 24 -10 5 6 -21 24 -34 24 -6 0 -1 -6 10
-14z"/>
<path d="M1335 1890 c-3 -5 -1 -10 4 -10 6 0 11 5 11 10 0 6 -2 10 -4 10 -3 0
-8 -4 -11 -10z"/>
<path d="M3228 1882 c9 -10 19 -17 21 -16 6 5 -20 34 -30 34 -5 0 -1 -8 9 -18z"/>
<path d="M3266 1888 c3 -5 10 -6 15 -3 13 9 11 12 -6 12 -8 0 -12 -4 -9 -9z"/>
<path d="M3190 1886 c0 -3 9 -10 20 -16 11 -6 20 -8 20 -6 0 3 -9 10 -20 16
-11 6 -20 8 -20 6z"/>
<path d="M2100 1875 c0 -7 30 -13 34 -7 3 4 -4 9 -15 9 -10 1 -19 0 -19 -2z"/>
<path d="M3170 1870 c0 -5 5 -10 11 -10 5 0 7 5 4 10 -3 6 -8 10 -11 10 -2 0
-4 -4 -4 -10z"/>
<path d="M2707 1856 c-4 -10 -1 -13 8 -9 8 3 12 9 9 14 -7 12 -11 11 -17 -5z"/>
<path d="M3713 1855 c0 -8 4 -12 9 -9 5 3 6 10 3 15 -9 13 -12 11 -12 -6z"/>
<path d="M573 1845 c0 -8 4 -12 9 -9 5 3 6 10 3 15 -9 13 -12 11 -12 -6z"/>
<path d="M1515 1850 c-3 -5 -1 -10 4 -10 6 0 11 5 11 10 0 6 -2 10 -4 10 -3 0
-8 -4 -11 -10z"/>
<path d="M2135 1849 c-4 -6 -5 -12 -2 -15 2 -3 7 2 10 11 7 17 1 20 -8 4z"/>
<path d="M3140 1845 c0 -8 2 -15 4 -15 2 0 6 7 10 15 3 8 1 15 -4 15 -6 0 -10
-7 -10 -15z"/>
<path d="M3196 1852 c-3 -5 1 -9 9 -9 8 0 12 4 9 9 -3 4 -7 8 -9 8 -2 0 -6 -4
-9 -8z"/>
<path d="M2670 1830 c0 -5 5 -10 10 -10 6 0 10 5 10 10 0 6 -4 10 -10 10 -5 0
-10 -4 -10 -10z"/>
<path d="M3593 1832 c-9 -5 -6 -12 10 -21 21 -13 21 -13 7 4 -14 17 -13 18 3
12 11 -4 16 -3 12 3 -7 12 -16 12 -32 2z"/>
<path d="M1535 1819 c-4 -6 -5 -12 -2 -15 2 -3 7 2 10 11 7 17 1 20 -8 4z"/>
<path d="M520 1810 c-8 -5 -10 -10 -5 -10 6 0 17 5 25 10 8 5 11 10 5 10 -5 0
-17 -5 -25 -10z"/>
<path d="M1200 1816 c0 -2 8 -10 18 -17 15 -13 16 -12 3 4 -13 16 -21 21 -21
13z"/>
<path d="M1320 1810 c-9 -6 -10 -10 -3 -10 6 0 15 5 18 10 8 12 4 12 -15 0z"/>
<path d="M1356 1808 c3 -5 10 -6 15 -3 13 9 11 12 -6 12 -8 0 -12 -4 -9 -9z"/>
<path d="M2707 1809 c7 -7 15 -10 18 -7 3 3 -2 9 -12 12 -14 6 -15 5 -6 -5z"/>
<path d="M2054 1798 c-4 -7 -3 -8 5 -4 6 4 19 2 27 -5 12 -10 13 -9 8 5 -7 19
-30 21 -40 4z"/>
<path d="M494 1792 c3 -6 -2 -12 -11 -14 -16 -3 -17 -4 -1 -10 19 -8 33 17 16
28 -6 4 -8 3 -4 -4z"/>
<path d="M539 1798 c-5 -18 -6 -38 -1 -34 7 8 12 36 6 36 -2 0 -4 -1 -5 -2z"/>
<path d="M1507 1789 c7 -7 15 -10 18 -7 3 3 -2 9 -12 12 -14 6 -15 5 -6 -5z"/>
<path d="M3090 1789 c0 -5 5 -7 10 -4 6 3 10 8 10 11 0 2 -4 4 -10 4 -5 0 -10
-5 -10 -11z"/>
<path d="M1135 1771 c-3 -5 -2 -12 3 -15 5 -3 9 1 9 9 0 17 -3 19 -12 6z"/>
<path d="M1190 1768 c0 -4 4 -8 9 -8 6 0 12 4 15 8 3 5 -1 9 -9 9 -8 0 -15 -4
-15 -9z"/>
<path d="M1413 1765 c0 -8 4 -12 9 -9 5 3 6 10 3 15 -9 13 -12 11 -12 -6z"/>
<path d="M633 1755 c0 -8 4 -15 9 -15 4 0 8 4 8 9 0 6 -4 12 -8 15 -5 3 -9 -1
-9 -9z"/>
<path d="M2014 1748 l-19 -23 22 19 c19 15 25 16 38 6 8 -7 15 -8 15 -2 0 8
-22 22 -34 22 -2 0 -11 -10 -22 -22z"/>
<path d="M3673 1757 c-5 -7 -22 -34 -38 -62 -16 -27 -32 -53 -37 -56 -6 -3 -9
-9 -9 -13 3 -19 -2 -18 -11 4 -6 14 -10 28 -10 33 1 4 -2 7 -8 7 -5 0 -25 14
-44 31 -20 17 -40 28 -45 25 -10 -7 -86 -142 -101 -181 -8 -22 -5 -30 22 -55
17 -17 36 -30 41 -30 6 0 7 -3 4 -7 -4 -3 5 -12 20 -20 31 -16 73 -10 73 11 0
7 7 19 16 27 8 7 21 26 28 43 8 20 15 26 20 18 4 -7 2 -12 -3 -12 -29 0 15
-45 51 -52 7 -2 16 -10 20 -18 6 -11 7 -10 5 4 -1 11 -10 20 -19 22 -9 1 -26
9 -38 17 -17 12 -18 15 -5 20 8 4 15 2 15 -4 0 -5 11 -14 25 -19 14 -5 28 -16
31 -24 8 -20 41 -8 65 22 15 20 28 26 52 24 17 -2 29 0 26 3 -3 3 -17 6 -32 7
-23 2 -25 4 -12 18 8 9 12 20 8 25 -5 4 -2 5 5 1 6 -4 12 -2 12 4 0 6 5 8 12
4 7 -4 8 -3 4 5 -4 6 -12 9 -17 6 -5 -4 -9 -2 -9 3 0 5 10 14 23 21 12 6 15
10 5 7 -10 -3 -18 2 -21 14 -4 14 0 18 14 15 11 -2 17 0 14 6 -4 5 -11 7 -16
4 -5 -4 -16 6 -25 22 -24 41 -100 96 -111 80z"/>
<path d="M437 1738 c19 -21 31 -25 14 -5 -6 8 -9 16 -6 19 3 2 -2 5 -10 5 -13
0 -13 -3 2 -19z"/>
<path d="M2601 1752 c9 -4 15 -14 14 -23 -2 -12 3 -15 18 -11 19 5 19 6 3 12
-10 3 -17 10 -16 15 0 6 -7 11 -17 12 -15 2 -16 2 -2 -5z"/>
<path d="M2690 1750 c0 -5 5 -10 11 -10 5 0 7 5 4 10 -3 6 -8 10 -11 10 -2 0
-4 -4 -4 -10z"/>
<path d="M690 1727 c0 -6 3 -7 7 -4 3 4 16 -1 27 -10 17 -15 18 -15 8 -1 -10
13 -10 17 0 21 7 2 1 4 -14 4 -16 0 -28 -4 -28 -10z"/>
<path d="M820 1730 c8 -5 20 -10 25 -10 6 0 3 5 -5 10 -8 5 -19 10 -25 10 -5
0 -3 -5 5 -10z"/>
<path d="M915 1730 c-3 -5 -1 -10 4 -10 6 0 11 5 11 10 0 6 -2 10 -4 10 -3 0
-8 -4 -11 -10z"/>
<path d="M948 1718 c-10 -10 -14 -18 -9 -18 10 0 36 29 30 34 -2 1 -12 -6 -21
-16z"/>
<path d="M1033 1721 c0 -11 5 -18 9 -15 4 3 5 11 1 19 -7 21 -12 19 -10 -4z"/>
<path d="M1110 1731 c0 -6 4 -12 8 -15 5 -3 9 1 9 9 0 8 -4 15 -9 15 -4 0 -8
-4 -8 -9z"/>
<path d="M2020 1725 c-10 -12 -9 -16 4 -21 9 -3 13 -10 10 -15 -3 -5 0 -9 5
-9 16 0 13 20 -4 26 -23 9 -6 26 18 19 17 -5 19 -4 7 4 -20 14 -25 14 -40 -4z"/>
<path d="M2576 1724 c-3 -8 -11 -12 -17 -8 -8 4 -9 3 -5 -5 4 -6 12 -8 18 -5
7 5 9 2 6 -7 -4 -11 1 -15 17 -15 13 0 21 4 19 8 -3 5 -10 6 -15 3 -9 -6 -13
8 -10 33 3 17 -6 15 -13 -4z"/>
<path d="M750 1721 c0 -5 7 -12 16 -15 14 -5 15 -4 4 9 -14 17 -20 19 -20 6z"/>
<path d="M790 1721 c0 -5 7 -12 16 -15 14 -5 15 -4 4 9 -14 17 -20 19 -20 6z"/>
<path d="M595 1710 c-3 -5 -1 -10 4 -10 6 0 11 5 11 10 0 6 -2 10 -4 10 -3 0
-8 -4 -11 -10z"/>
<path d="M865 1709 c-3 -4 2 -6 10 -5 21 3 28 13 10 13 -9 0 -18 -4 -20 -8z"/>
<path d="M995 1710 c-3 -5 -1 -10 4 -10 6 0 11 5 11 10 0 6 -2 10 -4 10 -3 0
-8 -4 -11 -10z"/>
<path d="M1980 1709 c0 -5 5 -7 10 -4 6 3 10 8 10 11 0 2 -4 4 -10 4 -5 0 -10
-5 -10 -11z"/>
<path d="M2075 1699 c-4 -6 -5 -12 -2 -15 2 -3 7 2 10 11 7 17 1 20 -8 4z"/>
<path d="M1990 1678 c-10 -21 -10 -21 3 -6 8 10 18 14 22 10 5 -4 5 -1 1 6
-10 17 -14 15 -26 -10z"/>
<path d="M2526 1688 c3 -5 10 -6 15 -3 13 9 11 12 -6 12 -8 0 -12 -4 -9 -9z"/>
<path d="M2455 1671 c-6 -11 13 -26 22 -17 4 3 1 6 -6 6 -7 0 -9 5 -6 10 3 6
4 10 1 10 -3 0 -7 -4 -11 -9z"/>
<path d="M1866 1655 c-11 -8 -15 -15 -9 -15 6 0 16 7 23 15 16 19 11 19 -14 0z"/>
<path d="M1902 1650 c0 -14 2 -19 5 -12 2 6 2 18 0 25 -3 6 -5 1 -5 -13z"/>
<path d="M2395 1652 c3 -3 0 -10 -5 -17 -7 -8 -5 -12 5 -12 8 0 13 3 10 5 -3
3 0 10 5 17 7 8 5 12 -5 12 -8 0 -13 -3 -10 -5z"/>
<path d="M2355 1641 c-3 -5 -2 -12 3 -15 5 -3 9 1 9 9 0 17 -3 19 -12 6z"/>
<path d="M2430 1635 c-11 -13 -10 -14 4 -9 9 3 16 10 16 15 0 13 -6 11 -20 -6z"/>
<path d="M1835 1630 c6 -10 4 -12 -11 -6 -15 6 -17 5 -6 -5 9 -9 15 -10 23 -2
8 8 7 13 -2 18 -8 6 -10 4 -4 -5z"/>
<path d="M1879 1638 c0 -2 -2 -13 -3 -25 -2 -19 0 -21 12 -11 9 8 10 14 3 16
-6 2 -9 8 -5 13 3 5 3 9 0 9 -3 0 -6 -1 -7 -2z"/>
<path d="M1946 1628 c3 -5 10 -6 15 -3 13 9 11 12 -6 12 -8 0 -12 -4 -9 -9z"/>
<path d="M2310 1636 c0 -2 7 -7 16 -10 8 -3 12 -2 9 4 -6 10 -25 14 -25 6z"/>
<path d="M1769 1607 c6 -8 7 -18 3 -22 -4 -5 -1 -5 6 -1 10 6 10 11 1 22 -6 8
-14 14 -16 14 -3 0 0 -6 6 -13z"/>
<path d="M2415 1590 c-3 -5 -1 -10 4 -10 6 0 11 5 11 10 0 6 -2 10 -4 10 -3 0
-8 -4 -11 -10z"/>
<path d="M3830 1576 c0 -2 7 -7 16 -10 8 -3 12 -2 9 4 -6 10 -25 14 -25 6z"/>
<path d="M3816 1548 c3 -5 10 -6 15 -3 13 9 11 12 -6 12 -8 0 -12 -4 -9 -9z"/>
<path d="M3776 1485 c4 -8 8 -15 10 -15 2 0 4 7 4 15 0 8 -4 15 -10 15 -5 0
-7 -7 -4 -15z"/>
<path d="M3557 1472 c-12 -13 -13 -21 -6 -32 9 -13 10 -12 5 2 -6 20 10 34 17
16 3 -7 4 -3 4 10 -1 26 0 26 -20 4z"/>
<path d="M3745 1479 c-4 -6 -4 -13 -1 -16 3 -4 6 -1 6 6 0 7 5 9 12 5 7 -4 8
-3 4 4 -9 15 -13 15 -21 1z"/>
<path d="M3594 1455 c7 -37 14 -42 14 -10 0 14 -5 28 -10 31 -5 3 -6 -7 -4
-21z"/>
<path d="M3715 1449 c-4 -6 -4 -13 -1 -16 3 -4 6 -1 6 7 0 10 4 10 18 -1 15
-13 16 -12 3 4 -16 20 -18 20 -26 6z"/>
<path d="M3777 1445 c-4 -8 -3 -16 1 -19 4 -3 9 4 9 15 2 23 -3 25 -10 4z"/>
<path d="M3574 1433 c7 -13 -4 -17 -31 -14 -7 1 -13 -2 -13 -6 0 -5 13 -9 29
-8 27 0 35 15 16 32 -4 4 -5 2 -1 -4z"/>
<path d="M3620 1436 c0 -2 8 -10 18 -17 15 -13 16 -12 3 4 -13 16 -21 21 -21
13z"/>
<path d="M3595 1381 c-3 -5 -2 -12 3 -15 5 -3 9 1 9 9 0 17 -3 19 -12 6z"/>
</g>
</svg>
