<svg xmlns="http://www.w3.org/2000/svg" width="1723.506" height="1160.537" viewBox="0 0 1723.506 1160.537"><g transform="translate(54.125 21)"><g transform="translate(-167.526 212.57) rotate(-45)"><line y2="90" transform="translate(261.5 147.5)" fill="none" stroke="#dcdcdc" stroke-linecap="round" stroke-width="10"/><line y2="90" transform="translate(306.5 192.5) rotate(90)" fill="none" stroke="#dcdcdc" stroke-linecap="round" stroke-width="10"/></g><g transform="translate(250 -11)" fill="none" stroke="#dcdcdc" stroke-linecap="round" stroke-linejoin="round" stroke-width="10"><rect width="90" height="90" rx="9" stroke="none"/><rect x="-5" y="-5" width="100" height="100" rx="14" fill="none"/></g><g transform="matrix(0.966, 0.259, -0.259, 0.966, 9.927, 237.886)" fill="none" stroke="#dcdcdc" stroke-linecap="round" stroke-linejoin="round" stroke-width="10"><rect width="90" height="90" rx="9" stroke="none"/><rect x="-5" y="-5" width="100" height="100" rx="14" fill="none"/></g><g transform="translate(-234.387 82.79) rotate(-45)"><line y2="117.577" transform="translate(275.289 147.5)" fill="none" stroke="#dcdcdc" stroke-linecap="round" stroke-width="12"/><line y2="117.577" transform="translate(334.077 206.289) rotate(90)" fill="none" stroke="#dcdcdc" stroke-linecap="round" stroke-width="12"/></g><g transform="matrix(-0.454, -0.891, 0.891, -0.454, 91.588, 1237.631)"><line y2="90" transform="translate(261.5 147.5)" fill="none" stroke="#dcdcdc" stroke-linecap="round" stroke-width="10"/><line y2="90" transform="translate(306.5 192.5) rotate(90)" fill="none" stroke="#dcdcdc" stroke-linecap="round" stroke-width="10"/></g><g transform="matrix(0.309, -0.951, 0.951, 0.309, 7.984, 771.453)" fill="none" stroke="#dcdcdc" stroke-linecap="round" stroke-linejoin="round" stroke-width="10"><rect width="90" height="90" rx="9" stroke="none"/><rect x="-5" y="-5" width="100" height="100" rx="14" fill="none"/></g><g transform="matrix(0.545, -0.839, 0.839, 0.545, 170.502, 1076.686)" fill="none" stroke="#dcdcdc" stroke-linecap="round" stroke-linejoin="round" stroke-width="10"><rect width="90" height="90" rx="9" stroke="none"/><rect x="-5" y="-5" width="100" height="100" rx="14" fill="none"/></g><g transform="matrix(-0.454, -0.891, 0.891, -0.454, -52.5, 1261.115)"><line y2="117.577" transform="translate(275.289 147.5)" fill="none" stroke="#dcdcdc" stroke-linecap="round" stroke-width="12"/><line y2="117.577" transform="translate(334.077 206.289) rotate(90)" fill="none" stroke="#dcdcdc" stroke-linecap="round" stroke-width="12"/></g><g transform="translate(1613.755 227.419) rotate(-135)"><line y1="90" transform="translate(45 0)" fill="none" stroke="#dcdcdc" stroke-linecap="round" stroke-width="10"/><line y1="90" transform="translate(0 45) rotate(-90)" fill="none" stroke="#dcdcdc" stroke-linecap="round" stroke-width="10"/></g><g transform="translate(1275.255 -11)" fill="none" stroke="#dcdcdc" stroke-linecap="round" stroke-linejoin="round" stroke-width="10"><rect width="90" height="90" rx="9" stroke="none"/><rect x="-5" y="-5" width="100" height="100" rx="14" fill="none"/></g><g transform="matrix(-0.966, 0.259, -0.259, -0.966, 1628.622, 324.82)" fill="none" stroke="#dcdcdc" stroke-linecap="round" stroke-linejoin="round" stroke-width="10"><rect width="90" height="90" rx="9" stroke="none"/><rect x="-5" y="-5" width="100" height="100" rx="14" fill="none"/></g><g transform="translate(1509.116 117.14) rotate(-135)"><line y1="117.577" transform="translate(58.789 0)" fill="none" stroke="#dcdcdc" stroke-linecap="round" stroke-width="12"/><line y1="117.577" transform="translate(0 58.789) rotate(-90)" fill="none" stroke="#dcdcdc" stroke-linecap="round" stroke-width="12"/></g><g transform="matrix(0.454, -0.891, 0.891, 0.454, 1410.342, 936.905)"><line y1="90" transform="translate(45 0)" fill="none" stroke="#dcdcdc" stroke-linecap="round" stroke-width="10"/><line y1="90" transform="translate(0 45) rotate(-90)" fill="none" stroke="#dcdcdc" stroke-linecap="round" stroke-width="10"/></g><g transform="matrix(-0.309, -0.951, 0.951, -0.309, 1521.677, 799.264)" fill="none" stroke="#dcdcdc" stroke-linecap="round" stroke-linejoin="round" stroke-width="10"><rect width="90" height="90" rx="9" stroke="none"/><rect x="-5" y="-5" width="100" height="100" rx="14" fill="none"/></g><g transform="matrix(-0.545, -0.839, 0.839, -0.545, 1369.273, 1125.704)" fill="none" stroke="#dcdcdc" stroke-linecap="round" stroke-linejoin="round" stroke-width="10"><rect width="90" height="90" rx="9" stroke="none"/><rect x="-5" y="-5" width="100" height="100" rx="14" fill="none"/></g><g transform="matrix(0.454, -0.891, 0.891, 0.454, 1529.859, 947.87)"><line y1="117.577" transform="translate(58.789 0)" fill="none" stroke="#dcdcdc" stroke-linecap="round" stroke-width="12"/><line y1="117.577" transform="translate(0 58.789) rotate(-90)" fill="none" stroke="#dcdcdc" stroke-linecap="round" stroke-width="12"/></g></g></svg>