<svg xmlns="http://www.w3.org/2000/svg" width="21" height="24" viewBox="0 0 21 24"><path d="M6.938-7.5A.564.564,0,0,0,7.5-8.062V-9.937a.564.564,0,0,0-.562-.562H5.063a.564.564,0,0,0-.562.563v1.875a.564.564,0,0,0,.563.563ZM12-8.062V-9.937a.564.564,0,0,0-.562-.562H9.563A.564.564,0,0,0,9-9.937v1.875a.564.564,0,0,0,.563.563h1.875A.564.564,0,0,0,12-8.062Zm4.5,0V-9.937a.564.564,0,0,0-.562-.562H14.063a.564.564,0,0,0-.562.563v1.875a.564.564,0,0,0,.563.563h1.875A.564.564,0,0,0,16.5-8.062ZM12-3.562V-5.437A.564.564,0,0,0,11.438-6H9.563A.564.564,0,0,0,9-5.437v1.875A.564.564,0,0,0,9.563-3h1.875A.564.564,0,0,0,12-3.562Zm-4.5,0V-5.437A.564.564,0,0,0,6.938-6H5.063a.564.564,0,0,0-.562.563v1.875A.564.564,0,0,0,5.063-3H6.938A.564.564,0,0,0,7.5-3.562Zm9,0V-5.437A.564.564,0,0,0,15.938-6H14.063a.564.564,0,0,0-.562.563v1.875A.564.564,0,0,0,14.063-3h1.875A.564.564,0,0,0,16.5-3.562ZM21-15.75A2.251,2.251,0,0,0,18.75-18H16.5v-2.437A.564.564,0,0,0,15.938-21H14.063a.564.564,0,0,0-.562.563V-18h-6v-2.437A.564.564,0,0,0,6.938-21H5.063a.564.564,0,0,0-.562.563V-18H2.25A2.251,2.251,0,0,0,0-15.75V.75A2.251,2.251,0,0,0,2.25,3h16.5A2.251,2.251,0,0,0,21,.75ZM18.75.469a.282.282,0,0,1-.281.281H2.531A.282.282,0,0,1,2.25.469V-13.5h16.5Z" transform="translate(0 21)" fill="#fff"/></svg>