<svg xmlns="http://www.w3.org/2000/svg" width="20" height="20" viewBox="0 0 20 20"><path d="M10.375-20.625a10,10,0,0,0-10,10,10,10,0,0,0,10,10,10,10,0,0,0,10-10A10,10,0,0,0,10.375-20.625Zm0,18.064A8.062,8.062,0,0,1,2.31-10.625a8.062,8.062,0,0,1,8.064-8.064,8.062,8.062,0,0,1,8.064,8.064A8.062,8.062,0,0,1,10.375-2.561Zm2.492-4.21a.487.487,0,0,0,.677-.1L14.3-7.92a.484.484,0,0,0-.1-.677L11.5-10.557V-16.27a.485.485,0,0,0-.484-.484H9.73a.485.485,0,0,0-.484.484v6.621a.487.487,0,0,0,.2.391Z" transform="translate(-0.375 20.625)" fill="#6e6e6e"/></svg>