<svg xmlns="http://www.w3.org/2000/svg" width="27" height="24" viewBox="0 0 27 24"><path d="M11.006,2.986a.373.373,0,0,0,.464-.258l6.6-22.72a.379.379,0,0,0-.258-.464l-1.819-.53a.379.379,0,0,0-.464.258L8.93,1.992a.379.379,0,0,0,.258.464Zm-3.9-5.677L8.381-4.05a.379.379,0,0,0-.023-.539L3.384-9l4.973-4.411a.375.375,0,0,0,.023-.539L7.106-15.309a.377.377,0,0,0-.53-.019L.117-9.272a.374.374,0,0,0,0,.548L6.577-2.672A.377.377,0,0,0,7.106-2.691Zm13.317.019,6.455-6.052a.374.374,0,0,0,0-.548l-6.455-6.056a.372.372,0,0,0-.53.019L18.619-13.95a.379.379,0,0,0,.023.539L23.616-9,18.642-4.589a.375.375,0,0,0-.023.539l1.275,1.359A.377.377,0,0,0,20.423-2.672Z" transform="translate(0.002 21)" fill="#fff"/></svg>