<svg xmlns="http://www.w3.org/2000/svg" width="24" height="18" viewBox="0 0 24 18"><path d="M21.75-18H2.25A2.25,2.25,0,0,0,0-15.75v13.5A2.25,2.25,0,0,0,2.25,0h19.5A2.25,2.25,0,0,0,24-2.25v-13.5A2.25,2.25,0,0,0,21.75-18Zm0,2.25v1.913c-1.051.856-2.727,2.187-6.309,4.992-.789.621-2.353,2.113-3.441,2.1-1.088.018-2.652-1.475-3.441-2.1C4.977-11.65,3.3-12.981,2.25-13.837V-15.75ZM2.25-2.25v-8.7c1.074.856,2.6,2.056,4.919,3.874C8.194-6.27,9.988-4.489,12-4.5c2,.011,3.774-1.744,4.831-2.576,2.322-1.818,3.845-3.019,4.919-3.874v8.7Z" transform="translate(0 18)" fill="#116ac5"/></svg>