<svg xmlns="http://www.w3.org/2000/svg" width="29.02" height="34.824" viewBox="0 0 29.02 34.824"><path d="M23.765,20.314a1.451,1.451,0,0,1-1.451,1.451H10.706a1.451,1.451,0,1,1,0-2.9H22.314A1.451,1.451,0,0,1,23.765,20.314Zm-5.8,4.353H10.706a1.451,1.451,0,1,0,0,2.9h7.255a1.451,1.451,0,1,0,0-2.9ZM31.02,15.214V27.569a7.264,7.264,0,0,1-7.255,7.255H9.255A7.264,7.264,0,0,1,2,27.569V7.255A7.264,7.264,0,0,1,9.255,0h6.551a10.1,10.1,0,0,1,7.182,2.975l5.055,5.058A10.086,10.086,0,0,1,31.02,15.214ZM20.937,5.026a7.269,7.269,0,0,0-1.525-1.132v6.262a1.451,1.451,0,0,0,1.451,1.451h6.262a7.23,7.23,0,0,0-1.133-1.524Zm7.181,10.187c0-.239-.046-.469-.068-.7H20.863a4.353,4.353,0,0,1-4.353-4.353V2.97c-.235-.022-.466-.068-.7-.068H9.255A4.353,4.353,0,0,0,4.9,7.255V27.569a4.353,4.353,0,0,0,4.353,4.353h14.51a4.353,4.353,0,0,0,4.353-4.353Z" transform="translate(-2 0)" fill="#414141"/></svg>