<svg xmlns="http://www.w3.org/2000/svg" width="26.118" height="34.824" viewBox="0 0 26.118 34.824"><path d="M13.157,14.51a4.353,4.353,0,1,0,0,8.706h5.8a4.353,4.353,0,1,0,0-8.706Zm7.255,4.353a1.451,1.451,0,0,1-1.451,1.451h-5.8a1.451,1.451,0,1,1,0-2.9h5.8A1.451,1.451,0,0,1,20.412,18.863Zm2.9,8.706a1.451,1.451,0,0,1-1.451,1.451H10.255a1.451,1.451,0,1,1,0-2.9H21.863A1.451,1.451,0,0,1,23.314,27.569Zm3.68-23.04-2.406-2.4A7.208,7.208,0,0,0,19.458,0h-9.2A7.264,7.264,0,0,0,3,7.255V27.569a7.264,7.264,0,0,0,7.255,7.255H21.863a7.264,7.264,0,0,0,7.255-7.255V9.659a7.208,7.208,0,0,0-2.124-5.131ZM24.942,6.58a4.5,4.5,0,0,1,.548.675H21.863V3.627a4.254,4.254,0,0,1,.673.547Zm1.274,20.988a4.353,4.353,0,0,1-4.353,4.353H10.255A4.353,4.353,0,0,1,5.9,27.569V7.255A4.353,4.353,0,0,1,10.255,2.9h8.706V7.255a2.9,2.9,0,0,0,2.9,2.9h4.353Z" transform="translate(-3)" fill="#414141"/></svg>