<svg xmlns="http://www.w3.org/2000/svg" width="34.824" height="34.824" viewBox="0 0 34.824 34.824"><path d="M27.569,5.8h-1.6A7.268,7.268,0,0,0,18.863,0h-2.9a7.268,7.268,0,0,0-7.11,5.8h-1.6A7.264,7.264,0,0,0,0,13.059v14.51a7.264,7.264,0,0,0,7.255,7.255H27.569a7.264,7.264,0,0,0,7.255-7.255V13.059A7.264,7.264,0,0,0,27.569,5.8ZM15.961,2.9h2.9a4.353,4.353,0,0,1,4.086,2.9H11.875A4.353,4.353,0,0,1,15.961,2.9Zm-8.706,5.8H27.569a4.353,4.353,0,0,1,4.353,4.353v4.353H2.9V13.059A4.353,4.353,0,0,1,7.255,8.706ZM27.569,31.922H7.255A4.353,4.353,0,0,1,2.9,27.569V20.314H15.961v1.451a1.451,1.451,0,1,0,2.9,0V20.314H31.922v7.255A4.353,4.353,0,0,1,27.569,31.922Z" fill="#414141"/></svg>