<svg xmlns="http://www.w3.org/2000/svg" width="34.824" height="34.803" viewBox="0 0 34.824 34.803"><path d="M33.548,13.149,22.542,2.142a7.267,7.267,0,0,0-10.261,0L1.275,13.149A4.321,4.321,0,0,0,0,16.227V30.471a4.353,4.353,0,0,0,4.353,4.353H30.471a4.353,4.353,0,0,0,4.353-4.353V16.227A4.321,4.321,0,0,0,33.548,13.149ZM21.765,31.922H13.059V26.214a4.353,4.353,0,0,1,8.706,0Zm10.157-1.451a1.451,1.451,0,0,1-1.451,1.451h-5.8V26.214a7.255,7.255,0,1,0-14.51,0v5.708h-5.8A1.451,1.451,0,0,1,2.9,30.471V16.227A1.463,1.463,0,0,1,3.327,15.2l11.006-11a4.365,4.365,0,0,1,6.158,0L31.5,15.205a1.463,1.463,0,0,1,.425,1.021Z" transform="translate(0 -0.021)" fill="#414141"/></svg>