<svg xmlns="http://www.w3.org/2000/svg" width="24" height="24" viewBox="0 0 24 24"><path d="M23.325-21l-7.65.008a.675.675,0,0,0-.675.675v1.561h0a.675.675,0,0,0,.675.675h.014l3.451-.128.1.1L6.165-5.04a.646.646,0,0,0-.165.4.646.646,0,0,0,.165.4L7.243-3.165a.646.646,0,0,0,.4.165.646.646,0,0,0,.4-.165L21.112-16.237l.1.1-.128,3.451s0,.01,0,.014a.675.675,0,0,0,.675.675h1.562a.675.675,0,0,0,.675-.675L24-20.325A.675.675,0,0,0,23.325-21ZM20.25-7.5H19.5a.75.75,0,0,0-.75.75V.469a.281.281,0,0,1-.281.281H2.531A.281.281,0,0,1,2.25.469V-15.469a.281.281,0,0,1,.281-.281H9.75a.75.75,0,0,0,.75-.75v-.75A.75.75,0,0,0,9.75-18H2.25A2.251,2.251,0,0,0,0-15.75V.75A2.251,2.251,0,0,0,2.25,3h16.5A2.251,2.251,0,0,0,21,.75v-7.5A.75.75,0,0,0,20.25-7.5Z" transform="translate(0 21)" fill="#fff"/></svg>