<svg xmlns="http://www.w3.org/2000/svg" width="24.002" height="23.995" viewBox="0 0 24.002 23.995"><path d="M22.336-19.927,17.92-20.944A2.139,2.139,0,0,0,15.469-19.7L13.43-14.939a2.151,2.151,0,0,0,.614,2.5L15.919-10.9A14.577,14.577,0,0,1,10.1-5.086L8.564-6.961a2.15,2.15,0,0,0-2.5-.614L1.3-5.536A2.144,2.144,0,0,0,.052-3.084L1.069,1.331A2.137,2.137,0,0,0,3.159,3,20.829,20.829,0,0,0,24-17.836,2.137,2.137,0,0,0,22.336-19.927ZM3.248.75,2.269-3.5l4.6-1.973L9.483-2.283a16.987,16.987,0,0,0,9.234-9.234l-3.192-2.611,1.973-4.6,4.252.98A18.585,18.585,0,0,1,3.248.75Z" transform="translate(0.002 20.999)" fill="#116ac5"/></svg>