<svg xmlns="http://www.w3.org/2000/svg" width="25" height="20" viewBox="0 0 25 20"><path d="M24.451-9.523a1.875,1.875,0,0,0,0-2.652l-8.277-8.277A2.154,2.154,0,0,0,14.848-21h-1.9l10.18,10.152L13.812-1.563l.014.014a1.875,1.875,0,0,0,2.652,0Zm-5,0a1.875,1.875,0,0,0,0-2.652l-8.277-8.277A2.154,2.154,0,0,0,9.848-21H1.875A1.875,1.875,0,0,0,0-19.125v7.973A2.154,2.154,0,0,0,.549-9.826L8.826-1.549A1.869,1.869,0,0,0,10.152-1a1.869,1.869,0,0,0,1.326-.549Zm-1.326-1.326L10.152-2.875,1.875-11.152v-7.973H9.848Zm-12.5-6.4A1.875,1.875,0,0,0,3.75-15.375,1.875,1.875,0,0,0,5.625-13.5,1.875,1.875,0,0,0,7.5-15.375,1.875,1.875,0,0,0,5.625-17.25Z" transform="translate(0 21)" fill="#6e6e6e"/></svg>