<svg xmlns="http://www.w3.org/2000/svg" width="15.75" height="18" viewBox="0 0 15.75 18"><path d="M11.025-10.313c-1.009,0-1.494.562-3.15.562s-2.137-.562-3.15-.562A4.726,4.726,0,0,0,0-5.588v.9A1.688,1.688,0,0,0,1.687-3H14.062A1.688,1.688,0,0,0,15.75-4.688v-.9A4.726,4.726,0,0,0,11.025-10.313Zm3.038,5.625H1.687v-.9A3.043,3.043,0,0,1,4.725-8.625a13.764,13.764,0,0,0,3.15.562,13.632,13.632,0,0,0,3.15-.562,3.043,3.043,0,0,1,3.038,3.037ZM7.875-10.875a5.064,5.064,0,0,0,5.062-5.062A5.064,5.064,0,0,0,7.875-21a5.064,5.064,0,0,0-5.062,5.062A5.064,5.064,0,0,0,7.875-10.875Zm0-8.437a3.38,3.38,0,0,1,3.375,3.375,3.38,3.38,0,0,1-3.375,3.375A3.38,3.38,0,0,1,4.5-15.938,3.38,3.38,0,0,1,7.875-19.313Z" transform="translate(0 21)" fill="#6e6e6e"/></svg>