<svg xmlns="http://www.w3.org/2000/svg" width="21" height="24" viewBox="0 0 21 24"><path d="M10.5-7.5a6.752,6.752,0,0,0,6.75-6.75A6.752,6.752,0,0,0,10.5-21a6.752,6.752,0,0,0-6.75,6.75A6.752,6.752,0,0,0,10.5-7.5Zm0-11.25a4.507,4.507,0,0,1,4.5,4.5,4.507,4.507,0,0,1-4.5,4.5A4.507,4.507,0,0,1,6-14.25,4.507,4.507,0,0,1,10.5-18.75ZM14.808-6.741,12.159.5,11.25-3.375,12.75-6H8.25l1.5,2.625L8.836.5,6.188-6.741A6.3,6.3,0,0,0,0-.45V.75A2.251,2.251,0,0,0,2.25,3h16.5A2.251,2.251,0,0,0,21,.75V-.45A6.3,6.3,0,0,0,14.808-6.741ZM4.5.75H2.25V-.45A4.064,4.064,0,0,1,4.734-4.172L6.534.75Zm14.25,0H14.47l1.8-4.922A4.071,4.071,0,0,1,18.75-.45Z" transform="translate(0 21)" fill="#fff"/></svg>